<?xml version="1.0" encoding="UTF-8"?>
<svg version="1.1" xmlns="http://www.w3.org/2000/svg" width="1000" height="1000">
<path d="M0 0 C1.78775848 0.54821159 1.78775848 0.54821159 3.6116333 1.10749817 C6.75920431 2.07599641 9.90221288 3.05774827 13.0435791 4.04614258 C16.19720113 5.03438366 19.35677369 6.00323802 22.515625 6.97460938 C29.42133843 9.10455527 36.31518788 11.2703414 43.203125 13.45703125 C44.06598114 13.72987946 44.92883728 14.00272766 45.81784058 14.28384399 C47.94242025 14.95867777 50.063793 15.64235707 52.18359375 16.33203125 C53.26793701 16.68394531 54.35228027 17.03585937 55.46948242 17.3984375 C63.61850704 20.55411944 69.72126795 26.98645902 73.3125 34.90234375 C75.80860046 42.06221086 75.4346535 48.4369711 73.54760742 55.72509766 C73.36848155 56.41740793 73.18935568 57.10971821 73.00480175 57.82300758 C70.83605451 66.06784523 68.33284709 74.2116024 65.81640625 82.35546875 C65.30854013 84.00923211 64.80099332 85.66309356 64.29374695 87.31704712 C63.24159825 90.7447086 62.1867417 94.17151953 61.12963867 97.59765625 C59.77378393 101.99230784 58.42325303 106.38857329 57.07449055 110.78540611 C56.03195797 114.18294257 54.98753304 117.57989472 53.94243431 120.97664261 C53.44326033 122.59928036 52.94447987 124.22203921 52.44610023 125.84492111 C51.75403876 128.0968821 51.05963577 130.34810688 50.36450195 132.59912109 C50.05672066 133.60258827 50.05672066 133.60258827 49.74272156 134.62632751 C49.01197946 136.98597582 48.30995739 139.24336646 47.203125 141.45703125 C47.83178467 141.43608398 48.46044434 141.41513672 49.1081543 141.39355469 C68.61492454 140.82974426 86.51890343 142.60800284 101.59375 156.75 C114.36805957 170.29944972 120.76847872 185.06177163 120.49609375 203.6875 C120.49184891 204.80393387 120.48760406 205.92036774 120.48323059 207.07063293 C120.46659493 210.59552334 120.42897119 214.11981708 120.390625 217.64453125 C120.37555863 220.05142397 120.36187367 222.45832575 120.34960938 224.86523438 C120.31674114 230.72936621 120.26669512 236.59315608 120.203125 242.45703125 C121.110625 242.72515625 122.018125 242.99328125 122.953125 243.26953125 C125.94878979 244.36410108 127.74436055 245.50605511 130.203125 247.45703125 C130.20526253 246.1373082 130.20526253 246.1373082 130.20744324 244.79092407 C130.22533659 236.46443931 130.26713694 228.1384817 130.33521557 219.81225014 C130.36938099 215.53247819 130.39457916 211.25305925 130.39868164 206.97314453 C130.40298721 202.83605119 130.43163466 198.69975274 130.47655678 194.56290817 C130.48946017 192.99146546 130.49386505 191.41992726 130.48927879 189.84843826 C130.46881524 180.70027246 130.98838078 173.32584481 136.203125 165.45703125 C136.88375 164.38453125 137.564375 163.31203125 138.265625 162.20703125 C145.02482818 155.10152399 152.75529133 153.14828827 162.22798157 152.75900269 C166.88824352 152.67142673 171.54245917 152.67242787 176.203125 152.72973633 C179.82671626 152.76951579 183.44665788 152.75036647 187.0703125 152.72460938 C189.39845154 152.73216742 191.72658256 152.7431198 194.0546875 152.7578125 C195.65976669 152.74733635 195.65976669 152.74733635 197.29727173 152.73664856 C206.11400673 152.90052338 214.21971046 155.70224482 220.83597851 161.79242897 C228.16310539 170.71374953 229.07426785 180.20122853 228.96362305 191.25634766 C228.97013138 192.80838748 228.97920314 194.36041831 228.99061584 195.91242981 C229.01352088 200.09232744 228.99908457 204.27130172 228.97614646 208.45116854 C228.95710419 212.84403408 228.9684082 217.23684264 228.97505188 221.62973022 C228.98137402 229.00167355 228.96321581 236.37325074 228.93041992 243.74511719 C228.89290439 252.24776844 228.89472186 260.74972731 228.9174611 269.2524153 C228.93846169 277.46122397 228.93110864 285.66977858 228.91114235 293.878582 C228.90319063 297.35924994 228.90510628 300.83970097 228.91516685 304.32036209 C228.92577391 308.42309887 228.91143281 312.52503516 228.87842369 316.62764549 C228.87026721 318.12633655 228.87044034 319.62510163 228.87990189 321.12378502 C228.92966359 329.98372287 228.12598174 336.87634607 223.203125 344.45703125 C222.5225 345.52953125 221.841875 346.60203125 221.140625 347.70703125 C214.38142182 354.81253851 206.65095867 356.76577423 197.17826843 357.15505981 C192.51800648 357.24263577 187.86379083 357.24163463 183.203125 357.18432617 C179.57953374 357.14454671 175.95959212 357.16369603 172.3359375 357.18945312 C170.00779846 357.18189508 167.67966744 357.1709427 165.3515625 357.15625 C163.74648331 357.16672615 163.74648331 357.16672615 162.10897827 357.17741394 C153.30830057 357.01383757 145.1539449 354.22360176 138.56982422 348.11010742 C130.4127693 338.24383038 130.30411449 327.822736 130.328125 315.70703125 C130.30995887 314.02731279 130.28914405 312.34762079 130.265625 310.66796875 C130.21429702 306.59731661 130.19865703 302.52798878 130.203125 298.45703125 C126.53241622 299.88778536 123.8421878 301.50470022 121.203125 304.45703125 C119.87752984 309.72475094 120.11193354 314.94898178 120.24609375 320.3359375 C120.25060508 321.91047022 120.25055313 323.48502197 120.24617004 325.05955505 C120.24420868 329.20320115 120.29237814 333.34460966 120.35473633 337.48773193 C120.44834788 344.09164504 120.47651854 350.69565391 120.48436928 357.30015373 C120.4957904 359.58767896 120.53505901 361.87341544 120.57792664 364.16053772 C120.75181096 379.98462011 115.98593596 396.04128421 104.91015625 407.84765625 C89.53089652 422.34709563 73.77764946 426.92659641 53.13687134 426.8447113 C51.41659745 426.84888939 49.69632633 426.8543695 47.97606027 426.86103112 C43.2714994 426.87544218 38.56711437 426.8712546 33.86254406 426.8638643 C28.77994343 426.85912418 23.69738037 426.87164995 18.61479187 426.88188171 C8.66635482 426.89905848 -1.28201904 426.89991205 -11.23046707 426.89466881 C-19.31839147 426.8906238 -27.40629722 426.89207461 -35.49422073 426.89741707 C-37.22234351 426.8985397 -37.22234351 426.8985397 -38.98537786 426.89968501 C-41.32599548 426.90121653 -43.6666131 426.90275487 -46.00723071 426.90429998 C-67.94619425 426.91802096 -89.88512211 426.91259015 -111.82408483 426.90111477 C-131.88350351 426.89118279 -151.94282994 426.9041232 -172.00223438 426.92804896 C-192.61295117 426.95244657 -213.22362501 426.9620462 -233.83435595 426.95539623 C-245.40023203 426.9519055 -256.96603717 426.95412653 -268.53190231 426.97164726 C-278.37757769 426.98637747 -288.22313218 426.98699389 -298.0688052 426.96957635 C-303.08917847 426.96107082 -308.10933585 426.95890601 -313.1296978 426.97422791 C-317.73146527 426.98809808 -322.33283237 426.98328191 -326.93457682 426.96398867 C-328.5932828 426.9602355 -330.25202104 426.96313079 -331.91069822 426.97360032 C-348.7389743 427.07221043 -365.52139349 423.04637529 -378.1875 411.1640625 C-390.79137323 397.79539114 -397.37074453 383.07845587 -397.08984375 364.6640625 C-397.08559891 363.59202072 -397.08135406 362.51997894 -397.07698059 361.41545105 C-397.06035489 358.03320864 -397.02273346 354.65158976 -396.984375 351.26953125 C-396.96930733 348.95899306 -396.9556226 346.64844541 -396.94335938 344.33789062 C-396.91050444 338.71072923 -396.86046903 333.08392481 -396.796875 327.45703125 C-399.106875 327.12703125 -401.416875 326.79703125 -403.796875 326.45703125 C-403.69375 327.57078125 -403.590625 328.68453125 -403.484375 329.83203125 C-403.484375 336.70130345 -407.48685245 344.16171935 -412.17456055 349.08959961 C-423.06540354 358.26937562 -435.23634867 357.35106906 -448.796875 357.18432617 C-452.42046626 357.14454671 -456.04040788 357.16369603 -459.6640625 357.18945312 C-461.99220154 357.18189508 -464.32033256 357.1709427 -466.6484375 357.15625 C-467.7184903 357.1632341 -468.78854309 357.1702182 -469.89102173 357.17741394 C-478.70775673 357.01353912 -486.81346046 354.21181768 -493.42972851 348.12163353 C-500.75685539 339.20031297 -501.66801785 329.71283397 -501.55737305 318.65771484 C-501.56388138 317.10567502 -501.57295314 315.55364419 -501.58436584 314.00163269 C-501.60727088 309.82173506 -501.59283457 305.64276078 -501.56989646 301.46289396 C-501.55085419 297.07002842 -501.5621582 292.67721986 -501.56880188 288.28433228 C-501.57512402 280.91238895 -501.55696581 273.54081176 -501.52416992 266.16894531 C-501.48665439 257.66629406 -501.48847186 249.16433519 -501.5112111 240.6616472 C-501.53221169 232.45283853 -501.52485864 224.24428392 -501.50489235 216.0354805 C-501.49694063 212.55481256 -501.49885628 209.07436153 -501.50891685 205.59370041 C-501.51952391 201.49096363 -501.50518281 197.38902734 -501.47217369 193.28641701 C-501.46401721 191.78772595 -501.46419034 190.28896087 -501.47365189 188.79027748 C-501.52341359 179.93033963 -500.71973174 173.03771643 -495.796875 165.45703125 C-495.11625 164.38453125 -494.435625 163.31203125 -493.734375 162.20703125 C-486.97517182 155.10152399 -479.24470867 153.14828827 -469.77201843 152.75900269 C-465.11175648 152.67142673 -460.45754083 152.67242787 -455.796875 152.72973633 C-452.17328374 152.76951579 -448.55334212 152.75036647 -444.9296875 152.72460938 C-442.60154846 152.73216742 -440.27341744 152.7431198 -437.9453125 152.7578125 C-436.8752597 152.7508284 -435.80520691 152.7438443 -434.70272827 152.73664856 C-425.91141734 152.90005083 -417.73132036 155.683646 -411.16470337 161.80877686 C-402.59961648 172.12983936 -402.99023942 182.73622493 -403.2109375 195.44140625 C-403.22214999 197.35238299 -403.23068045 199.26337717 -403.23666382 201.17437744 C-403.25940077 206.16586245 -403.31819061 211.15627358 -403.3848877 216.14733887 C-403.44663963 221.25563029 -403.47374864 226.36409791 -403.50390625 231.47265625 C-403.56795088 241.46791567 -403.67014343 251.46238362 -403.796875 261.45703125 C-401.486875 261.12703125 -399.176875 260.79703125 -396.796875 260.45703125 C-396.80575745 259.62146194 -396.81463989 258.78589264 -396.8237915 257.92500305 C-396.90440105 249.99710816 -396.96507274 242.06935364 -397.00412369 234.14114094 C-397.02487611 230.06648897 -397.05296337 225.99217953 -397.09863281 221.91772461 C-397.1425372 217.97544748 -397.16610456 214.03349689 -397.17638397 210.09099388 C-397.18369634 208.59729061 -397.19797216 207.1036024 -397.21979523 205.61004066 C-397.45141432 189.07982617 -393.13374353 172.46338319 -381.50390625 160.06640625 C-367.57361551 146.9330429 -352.70540967 140.83324223 -333.609375 141.26953125 C-332.46662109 141.28306641 -331.32386719 141.29660156 -330.14648438 141.31054688 C-327.36276537 141.34548895 -324.58008836 141.39454114 -321.796875 141.45703125 C-322.07835892 140.54185226 -322.35984283 139.62667328 -322.64985657 138.6837616 C-325.31436197 130.01993491 -327.97702274 121.35554316 -330.63792133 112.69060802 C-332.00566633 108.23689803 -333.37403957 103.78338318 -334.74389648 99.33032227 C-336.06813863 95.02545847 -337.3906679 90.72007177 -338.71205711 86.41433144 C-339.21415592 84.77928605 -339.716851 83.14442363 -340.2201786 81.50975609 C-350.79851088 47.1486575 -350.79851088 47.1486575 -343.796875 33.45703125 C-336.6521432 22.33247538 -324.08668809 19.30891921 -312.09375 15.59375 C-310.68420936 15.15266946 -309.27472562 14.71140704 -307.86529541 14.26997375 C-304.9256313 13.35195357 -301.9838024 12.44128382 -299.04052734 11.53491211 C-295.30515082 10.38318371 -291.57853834 9.20546699 -287.85343552 8.02099895 C-284.94902013 7.10225754 -282.03916531 6.20177896 -279.12760162 5.30597878 C-277.75275943 4.87986966 -276.37985088 4.44745964 -275.00917816 4.0081234 C-263.45288709 0.3167533 -251.41721282 -2.16475828 -239.9765625 3.19921875 C-229.21276119 9.41058796 -225.30341205 18.71517931 -221.984375 30.26953125 C-221.67306641 31.30529297 -221.36175781 32.34105469 -221.04101562 33.40820312 C-218.796875 40.99882383 -218.796875 40.99882383 -218.796875 44.45703125 C-217.86875 44.49828125 -216.940625 44.53953125 -215.984375 44.58203125 C-205.04087475 46.21473088 -195.26022337 54.77418879 -188.65234375 63.1875 C-186.52272501 66.19325517 -184.44599953 69.15878218 -182.796875 72.45703125 C-177.516875 72.78703125 -172.236875 73.11703125 -166.796875 73.45703125 C-166.796875 88.96703125 -166.796875 104.47703125 -166.796875 120.45703125 C-146.666875 120.45703125 -126.536875 120.45703125 -105.796875 120.45703125 C-105.796875 104.94703125 -105.796875 89.43703125 -105.796875 73.45703125 C-97.876875 72.96203125 -97.876875 72.96203125 -89.796875 72.45703125 C-85.92940989 67.91543692 -85.92940989 67.91543692 -84.2890625 64.37890625 C-80.46706274 56.89499049 -73.06117513 51.42378717 -65.796875 47.45703125 C-64.13417779 47.02337696 -62.47007527 46.59507904 -60.8046875 46.171875 C-57.26704334 44.78542151 -56.06253261 43.95154 -54.24267578 40.56396484 C-52.99409118 36.83474175 -51.9681488 33.08911555 -51.046875 29.26953125 C-48.09039891 17.69551749 -45.20046325 7.6839096 -34.921875 0.67578125 C-23.38805119 -5.93920594 -12.14038219 -3.85694496 0 0 Z " fill="#010100" transform="translate(632.796875,291.54296875)"/>
<path d="M0 0 C0 0.66 0 1.32 0 2 C0.99 2 1.98 2 3 2 C3 2.66 3 3.32 3 4 C3.99 4.33 4.98 4.66 6 5 C6 5.66 6 6.32 6 7 C6.66 7 7.32 7 8 7 C8 7.66 8 8.32 8 9 C10.475 9.495 10.475 9.495 13 10 C13.495 11.98 13.495 11.98 14 14 C15.32 14.33 16.64 14.66 18 15 C18 15.66 18 16.32 18 17 C18.99 17 19.98 17 21 17 C21 17.66 21 18.32 21 19 C22.65 19.33 24.3 19.66 26 20 C26 20.66 26 21.32 26 22 C26.99 22 27.98 22 29 22 C29 22.66 29 23.32 29 24 C30.98 24.33 32.96 24.66 35 25 C35.495 26.98 35.495 26.98 36 29 C38.31 29.33 40.62 29.66 43 30 C43 30.66 43 31.32 43 32 C43.99 32 44.98 32 46 32 C46 32.66 46 33.32 46 34 C47.65 34.33 49.3 34.66 51 35 C51 35.66 51 36.32 51 37 C53.31 37.33 55.62 37.66 58 38 C58 38.66 58 39.32 58 40 C58.99 40 59.98 40 61 40 C61 40.66 61 41.32 61 42 C61.99 42 62.98 42 64 42 C64 42.66 64 43.32 64 44 C66.31 44.33 68.62 44.66 71 45 C71 45.66 71 46.32 71 47 C72.051875 47.12375 73.10375 47.2475 74.1875 47.375 C77.45958771 47.91140782 80.00536076 48.63880035 83 50 C83 50.66 83 51.32 83 52 C84.15628906 52.103125 85.31257812 52.20625 86.50390625 52.3125 C90.98228626 52.87217433 94.79025258 54.28176785 98.9375 56 C104.69606155 58.28546263 109.74715493 59.7766841 116 60 C116 60.66 116 61.32 116 62 C117.670625 61.938125 117.670625 61.938125 119.375 61.875 C123.54578812 61.86765706 127.33759422 62.59955632 131.3984375 63.4921875 C134.90543856 64.17673726 138.40933415 64.47793888 141.96875 64.75390625 C144 65 144 65 146 66 C147.38817673 66.11726659 148.78148714 66.17681406 150.17431641 66.20532227 C151.03505768 66.22526749 151.89579895 66.24521271 152.78262329 66.26576233 C153.71287323 66.28247482 154.64312317 66.29918732 155.6015625 66.31640625 C157.02896255 66.3475779 157.02896255 66.3475779 158.48519897 66.37937927 C161.53172432 66.44488133 164.57833743 66.5037628 167.625 66.5625 C169.68750916 66.60568459 171.75000937 66.64929886 173.8125 66.69335938 C178.87490954 66.8005634 183.93740755 66.90182902 189 67 C189 66.34 189 65.68 189 65 C193.96073422 63.67713754 198.91111512 63.91106803 204 64 C204 63.34 204 62.68 204 62 C207.50776784 60.39644899 210.14354879 59.77963136 214 60 C214 59.34 214 58.68 214 58 C218.95 57.505 218.95 57.505 224 57 C224 56.34 224 55.68 224 55 C225.41396902 54.49242138 226.83131729 53.99425075 228.25 53.5 C229.03890625 53.2215625 229.8278125 52.943125 230.640625 52.65625 C233 52 233 52 237 52 C237 51.34 237 50.68 237 50 C237.66 50 238.32 50 239 50 C239 49.34 239 48.68 239 48 C241.64 47.67 244.28 47.34 247 47 C247 46.34 247 45.68 247 45 C247.66 45 248.32 45 249 45 C249 44.34 249 43.68 249 43 C251.64 42.67 254.28 42.34 257 42 C256.1395861 37.66770285 256.1395861 37.66770285 254 34 C253.95936168 32.33382885 253.957279 30.66611905 254 29 C253.34 29 252.68 29 252 29 C251.67 26.03 251.34 23.06 251 20 C250.34 20 249.68 20 249 20 C249 19.01 249 18.02 249 17 C248.34 17 247.68 17 247 17 C244.54983204 11.43143646 242.44573223 5.92242941 241 0 C245.41643597 -0.11779579 249.83245914 -0.18778111 254.25 -0.25 C255.48492188 -0.28351563 256.71984375 -0.31703125 257.9921875 -0.3515625 C272.14274629 -0.50051575 284.04061126 3.63478024 294.51171875 13.32421875 C303.80198398 23.10586991 308.35982495 33.88920744 308.22705078 47.34375 C308.22734283 48.13495743 308.22763489 48.92616486 308.22793579 49.74134827 C308.2265548 52.32768144 308.21105231 54.91371785 308.1953125 57.5 C308.19157798 59.30460452 308.18873308 61.10921108 308.18673706 62.91381836 C308.17913514 67.64188324 308.15951651 72.36982342 308.1373291 77.09783936 C308.11679623 81.9310945 308.10771949 86.76436997 308.09765625 91.59765625 C308.07626712 101.06515867 308.0421731 110.53256893 308 120 C306.1875 121.0625 306.1875 121.0625 304 122 C303.01 121.67 302.02 121.34 301 121 C295.4387371 120.42961406 291.14425449 121.09085714 286.0390625 123.27734375 C283.77507679 124.07971417 281.76566073 124.31210526 279.375 124.5 C276.30194281 124.75171799 274.84382459 125.07808771 272 126.5 C269.09870396 127.95064802 267.75282578 128.19352205 264.625 128.375 C261.04957001 128.64775254 259.17222375 129.35673809 256.3125 131.5 C252.55060779 134.15367948 249.56594635 134.34439799 245 134.5 C237.72839406 134.78775339 233.5873016 136.40347654 228.48046875 141.5234375 C223.67646832 146.97812387 222.52978996 151.04395633 222.69140625 158.18359375 C223.45543447 165.15656012 226.90243256 169.44788831 232.21875 173.7734375 C237.66101009 177.5209587 242.49687539 177.75346547 249 177 C252.9436567 175.6536953 256.05308193 173.94691807 259 171 C261.57421875 170.91015625 261.57421875 170.91015625 264.6875 171.0625 C269.97371598 171.15667249 273.18936524 170.27411825 278 168 C280.80732028 167.40877352 283.61177142 166.94874682 286.44921875 166.52734375 C288.96853859 166.00650427 290.71750896 165.14346153 293 164 C294.82168709 163.5901204 296.65722758 163.23872241 298.5 162.9375 C301.71146076 162.40372699 304.84755012 161.80951489 308 161 C308.10220311 167.9009116 308.17179948 174.80162492 308.21972656 181.703125 C308.23972611 184.04629815 308.26693477 186.38942214 308.30175781 188.73242188 C308.35079125 192.11861371 308.37308621 195.50414041 308.390625 198.890625 C308.41127014 199.92237854 308.43191528 200.95413208 308.45318604 202.01715088 C308.45711382 215.01942764 303.63442226 227.19663301 294.75 236.75 C283.31095238 247.43316342 270.15866683 250.1563854 255.01959229 250.13371277 C253.91079515 250.13597833 252.80199802 250.13824388 251.65960097 250.14057809 C247.94265309 250.14691028 244.22574174 250.14608922 240.50878906 250.14526367 C237.84435897 250.14825566 235.17993173 250.15163 232.51550293 250.15544128 C226.02786361 250.16374014 219.54023339 250.16649579 213.05258921 250.16705366 C207.77726346 250.16752923 202.50194071 250.16958601 197.22661591 250.17275429 C182.26091218 250.18155913 167.29521562 250.18617398 152.32950929 250.18542381 C151.52306614 250.18538386 150.716623 250.1853439 149.88574219 250.18530273 C148.67459553 250.18524141 148.67459553 250.18524141 147.43898126 250.18517885 C134.35785644 250.18477253 121.27676042 250.19433897 108.19564393 250.2084411 C94.75503615 250.2228161 81.3144424 250.22971065 67.87382674 250.22884732 C60.33160546 250.22851572 52.78941436 250.23124667 45.24720001 250.24202538 C38.82470374 250.25114522 32.40225134 250.25329349 25.97975138 250.24651595 C22.70560467 250.24325809 19.43155926 250.24426121 16.1574173 250.2518692 C12.60098419 250.25959682 9.04477073 250.25493898 5.48834229 250.24723816 C4.46322548 250.25238172 3.43810868 250.25752529 2.38192773 250.26282471 C-12.61644758 250.19125171 -24.82046888 245.933789 -35.80859375 235.421875 C-44.66477185 225.63429849 -48.15325425 213.86149488 -48.09765625 200.8515625 C-48.09553383 199.86547501 -48.09553383 199.86547501 -48.09336853 198.85946655 C-48.08781762 196.78126269 -48.07527465 194.70317073 -48.0625 192.625 C-48.05747864 191.20703282 -48.05291685 189.78906393 -48.04882812 188.37109375 C-48.03786437 184.91402678 -48.02063421 181.45702433 -48 178 C-46.86981445 177.91673462 -46.86981445 177.91673462 -45.71679688 177.83178711 C-44.72744141 177.7519458 -43.73808594 177.67210449 -42.71875 177.58984375 C-41.24825195 177.47564087 -41.24825195 177.47564087 -39.74804688 177.35913086 C-36.16099233 176.89035356 -33.29346479 175.47029678 -30 174 C-27.19231697 173.41355977 -24.3876693 172.94866376 -21.55078125 172.52734375 C-19.02315642 172.11966227 -19.02315642 172.11966227 -17.00390625 170.99609375 C-14.5456994 169.77417806 -12.33939201 169.49756361 -9.625 169.125 C-4.67944722 168.30183875 -1.95367007 166.9893603 2 164 C4.87929917 163.03825471 7.24263416 162.98736954 10.25 163.1875 C16.15029033 163.22625396 20.45516823 161.38119514 24.76171875 157.3515625 C29.93596434 151.61353712 31.53448018 146.49125146 31.37890625 138.78515625 C30.58868406 132.97661585 27.28045051 128.93970201 23 125.125 C16.97110915 120.85453565 11.27300066 119.94624138 4 121 C1.97290991 122.03900568 1.97290991 122.03900568 0.1875 123.4375 C-4.41420084 126.83875714 -9.06442365 126.60205372 -14.6328125 126.6640625 C-18.38510476 127.03842112 -20.69370823 128.25174161 -24 130 C-26.34375 130.40625 -26.34375 130.40625 -28.5 130.5 C-31.66056662 130.74757772 -33.1010463 131.05262828 -36 132.5625 C-39.05822293 134.02789849 -40.39474121 134.15844289 -43.6875 134.08984375 C-44.49574219 134.07687256 -45.30398438 134.06390137 -46.13671875 134.05053711 C-46.75160156 134.03385986 -47.36648438 134.01718262 -48 134 C-48.11627031 121.70777605 -48.20490578 109.4156847 -48.25906086 97.12302113 C-48.28506342 91.41392795 -48.32029 85.70521329 -48.37719727 79.99633789 C-48.43185108 74.47848012 -48.46149064 68.96098455 -48.47438622 63.44287682 C-48.48356646 61.34629306 -48.50149224 59.24972729 -48.52865028 57.15329933 C-48.73811962 40.30082356 -46.8702086 26.4004971 -34.74609375 13.625 C-24.64028789 4.00946015 -13.96089923 -0.58170413 0 0 Z " fill="#F6C556" transform="translate(363,426)"/>
<path d="M0 0 C13.81189692 0.38233625 13.81189692 0.38233625 18.0078125 3.484375 C18.88512034 4.67162992 19.72764008 5.88531022 20.53515625 7.12109375 C24.70424316 12.46864255 31.76528417 14.84479445 38.19824219 16.07885742 C39.09774597 16.25309738 39.99724976 16.42733734 40.92401123 16.6068573 C41.60908752 16.73659439 42.29416382 16.86633148 43 17 C43.09320783 25.52841049 43.16401969 34.05660361 43.20724869 42.58539963 C43.22800994 46.54686388 43.25611381 50.50797639 43.30175781 54.46923828 C43.34563014 58.30128624 43.36922298 62.13299864 43.37950897 65.96527863 C43.38682697 67.41794355 43.40111443 68.8705928 43.42292023 70.32311249 C43.63847445 85.29448614 40.16894988 98.54656448 29.75 109.75 C19.70440669 119.13178758 7.52117332 123.12082354 -6.03538895 123.12863445 C-7.06696661 123.13126401 -7.06696661 123.13126401 -8.11938423 123.13394669 C-10.42281043 123.13859695 -12.72617324 123.1361437 -15.02960205 123.13371277 C-16.69819813 123.13558123 -18.36679376 123.13788208 -20.03538871 123.14057809 C-24.62016886 123.14669816 -29.20493079 123.14656225 -33.7897141 123.14538372 C-38.73463424 123.14517976 -43.67954852 123.15069799 -48.62446594 123.15544128 C-58.31254603 123.16374963 -68.00062004 123.16649621 -77.68870339 123.16705366 C-85.56366681 123.16752875 -93.43862822 123.16958316 -101.313591 123.17275429 C-123.6391855 123.18156152 -145.9647752 123.18617358 -168.29037145 123.18542381 C-169.494085 123.18538386 -170.69779856 123.1853439 -171.93798828 123.18530273 C-173.74576258 123.18524141 -173.74576258 123.18524141 -175.59005758 123.18517885 C-195.12153845 123.18477241 -214.65300004 123.19434139 -234.18447533 123.2084411 C-254.237915 123.22280341 -274.29134527 123.22971136 -294.34479022 123.22884732 C-305.60378251 123.2285153 -316.86275459 123.23126498 -328.12174225 123.24202538 C-337.70811409 123.25112847 -347.29445656 123.2533072 -356.88083085 123.24651595 C-361.77112544 123.24324974 -366.66136367 123.24319775 -371.55165291 123.2518692 C-376.03122836 123.25973062 -380.51070273 123.25830639 -384.99027571 123.24958507 C-386.60802985 123.24804929 -388.22579151 123.24986917 -389.84353676 123.25544515 C-407.20236804 123.31129867 -420.81561618 120.85175402 -433.80859375 108.421875 C-443.70316916 97.48669362 -446.17503847 84.86375298 -446.09765625 70.5703125 C-446.0962413 69.57998016 -446.09482635 68.58964783 -446.09336853 67.56930542 C-446.08779252 64.42117227 -446.07524442 61.27311148 -446.0625 58.125 C-446.0574819 55.98437603 -446.05291954 53.84375094 -446.04882812 51.703125 C-446.03783094 46.46872551 -446.02111675 41.23436793 -446 36 C-444.08588443 35.01585567 -442.1686033 34.03786651 -440.25 33.0625 C-439.18265625 32.51722656 -438.1153125 31.97195313 -437.015625 31.41015625 C-432.59176222 29.34148467 -429.5882973 28.93176143 -424.75 29.1875 C-419.88599575 29.25235339 -416.88924895 28.37093894 -412.71875 25.9609375 C-410.51838618 24.73073409 -408.5036147 24.22090718 -406 24 C-405.34 24.33 -404.68 24.66 -404 25 C-402.46331135 25.22467831 -400.92031946 25.40796805 -399.375 25.5625 C-398.14910156 25.68818359 -398.14910156 25.68818359 -396.8984375 25.81640625 C-395.95871094 25.90728516 -395.95871094 25.90728516 -395 26 C-394.970271 27.18589722 -394.970271 27.18589722 -394.93994141 28.39575195 C-394.84371812 32.03495922 -394.73443858 35.67366711 -394.625 39.3125 C-394.5940625 40.55580078 -394.563125 41.79910156 -394.53125 43.08007812 C-394.02118079 59.27477547 -390.88598254 72.86104634 -381 86 C-380.55011719 86.61488281 -380.10023438 87.22976563 -379.63671875 87.86328125 C-370.00302439 100.10214366 -355.01611824 106.08014481 -340 108 C-336.07240521 108.25030556 -332.16351586 108.27111573 -328.22886658 108.25396729 C-327.10748136 108.25708727 -325.98609614 108.26020725 -324.83072954 108.26342177 C-321.10706881 108.27134146 -317.38357379 108.26510175 -313.65991211 108.25878906 C-310.97651193 108.26150159 -308.29312283 108.26499219 -305.60972595 108.26940918 C-299.09849659 108.27826769 -292.58731352 108.27639713 -286.0760824 108.2705839 C-280.78136008 108.26605379 -275.48665066 108.26546032 -270.19192696 108.26763153 C-269.43627981 108.267938 -268.68063266 108.26824446 -267.90208711 108.26856022 C-266.36667056 108.26919971 -264.83125401 108.26984814 -263.29583747 108.2705054 C-248.92379365 108.27619821 -234.55177541 108.26966709 -220.17973579 108.25890467 C-207.86517239 108.24996829 -195.5506467 108.25152394 -183.23608398 108.26074219 C-168.91136939 108.27146024 -154.58667718 108.2756509 -140.26195914 108.26951766 C-138.73272519 108.26888061 -137.20349123 108.26825186 -135.67425728 108.26763153 C-134.92197875 108.26732298 -134.16970022 108.26701443 -133.39462538 108.26669653 C-128.10972154 108.26497433 -122.82483197 108.26787438 -117.53993034 108.27259064 C-111.09454682 108.27821648 -104.64921198 108.27664727 -98.20383399 108.26602915 C-94.91939894 108.26079555 -91.63506104 108.2597641 -88.35062408 108.26532745 C-84.78171923 108.27081422 -81.21304034 108.26391069 -77.64414978 108.25396729 C-76.61825664 108.25842873 -75.5923635 108.26289017 -74.53538269 108.26748681 C-59.34565343 108.18572632 -46.20029715 104.17972068 -34 95 C-33.38511719 94.55011719 -32.77023437 94.10023438 -32.13671875 93.63671875 C-20.85513412 84.75653572 -14.92737947 70.71179681 -12 57 C-11.5816983 52.91992329 -11.51302203 48.86899386 -11.48828125 44.76953125 C-11.46135445 43.09488045 -11.46135445 43.09488045 -11.43388367 41.38639832 C-11.38021229 37.86180263 -11.34602396 34.33733894 -11.3125 30.8125 C-11.27928882 28.40558076 -11.24479572 25.99867884 -11.20898438 23.59179688 C-11.12451114 17.72798313 -11.05598086 11.86415134 -11 6 C-9.93458984 5.47599609 -9.93458984 5.47599609 -8.84765625 4.94140625 C-7.92855469 4.48636719 -7.00945312 4.03132812 -6.0625 3.5625 C-5.14597656 3.11003906 -4.22945312 2.65757812 -3.28515625 2.19140625 C-1.09471096 1.19474606 -1.09471096 1.19474606 0 0 Z " fill="#F5C555" transform="translate(696,581)"/>
<path d="M0 0 C30.65087275 -0.11399226 61.30169715 -0.2025117 91.95273115 -0.25532665 C95.56899234 -0.2615804 99.18525311 -0.26805199 102.80151367 -0.2746582 C103.88144051 -0.27662553 103.88144051 -0.27662553 104.98318406 -0.2786326 C116.65006961 -0.30040629 128.31683233 -0.33983853 139.98364494 -0.38576398 C151.94935307 -0.43247417 163.91499675 -0.46028384 175.88079232 -0.47044247 C182.60417518 -0.47669552 189.32730161 -0.4917707 196.05059242 -0.52865028 C202.3731423 -0.56247675 208.69529731 -0.57307987 215.01792908 -0.56553841 C217.34361094 -0.56691893 219.66930542 -0.57693022 221.99490929 -0.59602737 C225.16041307 -0.62075599 228.32440875 -0.61497844 231.48994446 -0.60127258 C232.88341448 -0.62311889 232.88341448 -0.62311889 234.30503541 -0.64540654 C236.64529006 -0.61785056 238.72788467 -0.56008943 241 0 C243.0350523 2.39060688 243.0350523 2.39060688 244 5 C244.31324219 5.77601563 244.62648438 6.55203125 244.94921875 7.3515625 C245.19285156 8.10179687 245.43648437 8.85203125 245.6875 9.625 C246.06455078 10.75808594 246.06455078 10.75808594 246.44921875 11.9140625 C247 14 247 14 247 17 C247.66 17 248.32 17 249 17 C249 17.99 249 18.98 249 20 C249.66 20 250.32 20 251 20 C251.33 22.97 251.66 25.94 252 29 C252.66 29 253.32 29 254 29 C255.58255197 33.32564205 256.45144652 37.428721 257 42 C254.36 42.33 251.72 42.66 249 43 C249 43.66 249 44.32 249 45 C248.34 45 247.68 45 247 45 C247 45.66 247 46.32 247 47 C244.36 47.33 241.72 47.66 239 48 C239 48.66 239 49.32 239 50 C238.34 50 237.68 50 237 50 C237 50.66 237 51.32 237 52 C228.57142857 55.42857143 228.57142857 55.42857143 224 55 C224 55.66 224 56.32 224 57 C219.05 57.495 219.05 57.495 214 58 C214 58.66 214 59.32 214 60 C210.7 60.66 207.4 61.32 204 62 C204 62.66 204 63.32 204 64 C199.05 64.33 194.1 64.66 189 65 C189 65.66 189 66.32 189 67 C182.91276345 67.02467081 176.82555583 67.04284604 170.73828125 67.05493164 C168.66633599 67.05996852 166.5943943 67.06679825 164.52246094 67.07543945 C161.54881918 67.08753321 158.57522431 67.09323467 155.6015625 67.09765625 C154.67131256 67.10281754 153.74106262 67.10797882 152.78262329 67.11329651 C151.92188202 67.11337204 151.06114075 67.11344757 150.17431641 67.11352539 C149.41486725 67.115746 148.65541809 67.11796661 147.87295532 67.12025452 C146 67 146 67 144 66 C141.16648061 65.65166446 138.34026434 65.34281554 135.5 65.0625 C128.89981505 64.37637463 122.48099934 63.46345146 116 62 C116 61.34 116 60.68 116 60 C114.845 60.12375 113.69 60.2475 112.5 60.375 C106.8305522 60.41093945 102.10734175 58.41661765 96.9375 56.31005859 C92.34155028 54.4409632 87.83939445 53.11138825 83 52 C83 51.34 83 50.68 83 50 C82.319375 49.87625 81.63875 49.7525 80.9375 49.625 C77.5722588 48.90899123 74.29986575 47.97054875 71 47 C71 46.34 71 45.68 71 45 C68.69 44.67 66.38 44.34 64 44 C64 43.34 64 42.68 64 42 C63.01 42 62.02 42 61 42 C61 41.34 61 40.68 61 40 C60.01 40 59.02 40 58 40 C58 39.34 58 38.68 58 38 C55.69 37.67 53.38 37.34 51 37 C51 36.34 51 35.68 51 35 C49.35 34.67 47.7 34.34 46 34 C46 33.34 46 32.68 46 32 C45.01 32 44.02 32 43 32 C43 31.34 43 30.68 43 30 C40.69 29.67 38.38 29.34 36 29 C35.505 27.515 35.505 27.515 35 26 C31.99152582 24.77479736 31.99152582 24.77479736 29 24 C29 23.34 29 22.68 29 22 C28.01 22 27.02 22 26 22 C26 21.34 26 20.68 26 20 C24.35 19.67 22.7 19.34 21 19 C21 18.34 21 17.68 21 17 C20.01 17 19.02 17 18 17 C18 16.34 18 15.68 18 15 C16.68 14.67 15.36 14.34 14 14 C13.67 12.68 13.34 11.36 13 10 C11.35 9.67 9.7 9.34 8 9 C8 8.34 8 7.68 8 7 C7.34 7 6.68 7 6 7 C4.375 5.625 4.375 5.625 3 4 C3 3.34 3 2.68 3 2 C2.01 2 1.02 2 0 2 C0 1.34 0 0.68 0 0 Z " fill="#08D59F" transform="translate(363,426)"/>
<path d="M0 0 C1.32696648 -0.00956978 1.32696648 -0.00956978 2.68074036 -0.01933289 C3.63905258 -0.02044571 4.59736481 -0.02155853 5.5847168 -0.02270508 C6.56885056 -0.02603348 7.55298431 -0.02936188 8.56694031 -0.03279114 C10.65253227 -0.03786065 12.73813236 -0.04019946 14.82373047 -0.04003906 C18.01047215 -0.04222027 21.19686478 -0.06036123 24.38354492 -0.0793457 C26.40893436 -0.08228069 28.43432545 -0.08426478 30.4597168 -0.08520508 C31.41195633 -0.09239059 32.36419586 -0.09957611 33.34529114 -0.10697937 C34.23939194 -0.10390274 35.13349274 -0.10082611 36.0546875 -0.09765625 C36.8369722 -0.09908127 37.6192569 -0.10050629 38.42524719 -0.10197449 C41.33940533 0.21180251 43.15918188 0.6685069 45.72143555 2.14526367 C56.24205381 16.31510223 54.84667953 34.09639579 54.66431332 50.85055447 C54.62871426 54.81946893 54.63622973 58.78834361 54.63775635 62.75738525 C54.634035 69.40425605 54.59961955 76.05038681 54.54467773 82.69702148 C54.48148985 90.36937594 54.46069731 98.04092684 54.46361995 105.71352267 C54.4663231 113.92037511 54.43858979 122.12692057 54.40183353 130.33368015 C54.39333003 132.68674711 54.39047204 135.03976425 54.38887787 137.39284515 C54.38485255 141.08689108 54.36037517 144.78026632 54.32021332 148.47409058 C54.30302094 150.46941252 54.30519381 152.46487205 54.3079834 154.46026611 C54.15235553 165.35127691 54.15235553 165.35127691 49.72143555 170.14526367 C45.33191731 174.20556804 42.0962955 175.24752537 36.23168945 175.32226562 C34.90979111 175.34151848 34.90979111 175.34151848 33.56118774 175.36116028 C32.61633514 175.36854721 31.67148254 175.37593414 30.69799805 175.38354492 C29.71906586 175.39161667 28.74013367 175.39968842 27.73153687 175.40800476 C25.66210693 175.42182129 23.59265443 175.43255429 21.52319336 175.44042969 C18.36487638 175.45766305 15.20760098 175.50157373 12.04956055 175.5456543 C10.03654739 175.55578016 8.02352536 175.56429659 6.01049805 175.57104492 C5.06969391 175.58855301 4.12888977 175.6060611 3.15957642 175.62409973 C-3.76621661 175.60127125 -6.7950387 174.13114289 -12.02856445 169.64526367 C-15.16079408 165.88658812 -15.53147774 162.73168307 -15.54598999 157.89614868 C-15.55451996 156.61195541 -15.56304993 155.32776215 -15.57183838 154.00465393 C-15.57113937 152.58358752 -15.57021632 151.16252121 -15.5690918 149.74145508 C-15.57507688 148.24322677 -15.58188238 146.74500156 -15.58944702 145.2467804 C-15.60711623 141.17854583 -15.61180278 137.1103954 -15.61307859 133.04212618 C-15.61450022 130.49992148 -15.61877003 127.95773817 -15.62407303 125.41553879 C-15.64257628 116.54515983 -15.65074326 107.67484098 -15.64916992 98.80444336 C-15.64796841 90.53829244 -15.66907188 82.27240259 -15.70065725 74.00631773 C-15.72681588 66.90725115 -15.73753739 59.80826985 -15.7362591 52.70915544 C-15.73574935 48.47013 -15.74143979 44.23133656 -15.7626152 39.99235916 C-15.7819908 36.00481267 -15.782127 32.01771965 -15.76758194 28.03015709 C-15.76549188 26.56846517 -15.77020659 25.10674491 -15.78230286 23.64510155 C-15.7977708 21.64624048 -15.78604133 19.64722459 -15.77304077 17.64834595 C-15.77413031 16.53079737 -15.77521984 15.41324879 -15.77634239 14.2618351 C-14.97361898 9.23601002 -12.40515588 6.13773707 -8.65356445 2.83276367 C-5.46744802 0.5689441 -3.84702082 0.01880255 0 0 Z " fill="#F6C556" transform="translate(793.278564453125,458.854736328125)"/>
<path d="M0 0 C1.32696648 -0.00956978 1.32696648 -0.00956978 2.68074036 -0.01933289 C3.63905258 -0.02044571 4.59736481 -0.02155853 5.5847168 -0.02270508 C6.56885056 -0.02603348 7.55298431 -0.02936188 8.56694031 -0.03279114 C10.65253227 -0.03786065 12.73813236 -0.04019946 14.82373047 -0.04003906 C18.01047215 -0.04222027 21.19686478 -0.06036123 24.38354492 -0.0793457 C26.40893436 -0.08228069 28.43432545 -0.08426478 30.4597168 -0.08520508 C31.41195633 -0.09239059 32.36419586 -0.09957611 33.34529114 -0.10697937 C34.23939194 -0.10390274 35.13349274 -0.10082611 36.0546875 -0.09765625 C36.8369722 -0.09908127 37.6192569 -0.10050629 38.42524719 -0.10197449 C41.38067602 0.21624626 43.13917147 0.60347037 45.72143555 2.14526367 C54.01521484 13.39020748 54.90059937 26.70302329 54.71362305 40.11010742 C54.71393416 41.96375251 54.71693085 43.81739885 54.72244263 45.67103577 C54.72518427 49.51957059 54.70053422 53.36659052 54.65454102 57.21484375 C54.59749092 62.11951599 54.60335491 67.02170586 54.62872124 71.92656612 C54.6426933 75.74026835 54.62699646 79.5534067 54.60220718 83.36703682 C54.59325425 85.17492059 54.59243717 86.98286564 54.60033798 88.79075432 C54.62235847 98.24986801 54.60898823 105.81189131 49.10110474 113.91993713 C45.5956783 119.57398706 45.97117814 127.43810942 47.25268555 133.77026367 C48.38227445 137.79749369 49.49092332 140.81596049 51.90893555 144.27026367 C54.21583355 147.98445853 54.16238612 151.95524513 54.22143555 156.20776367 C54.23972412 156.89306152 54.2580127 157.57835937 54.27685547 158.28442383 C54.21612016 163.3628775 52.87449266 166.22992901 49.72143555 170.14526367 C45.79834262 173.60132172 43.47326113 175.25927868 38.27514648 175.32226562 C37.35368835 175.33510086 36.43223022 175.3479361 35.48284912 175.36116028 C34.48392639 175.36854721 33.48500366 175.37593414 32.45581055 175.38354492 C31.42965637 175.39161667 30.4035022 175.39968842 29.34625244 175.40800476 C27.17071221 175.42185256 24.99515019 175.43257159 22.81958008 175.44042969 C19.49868313 175.45762261 16.1787867 175.50150089 12.8581543 175.5456543 C10.74488037 175.55578286 8.63159798 175.56429845 6.51831055 175.57104492 C5.52748474 175.58855301 4.53665894 175.6060611 3.51580811 175.62409973 C-2.27610273 175.60595903 -5.72088769 175.08975359 -10.27856445 171.14526367 C-14.32733242 166.5493649 -15.4025117 164.21577559 -15.42573547 158.13665771 C-15.43289078 156.85521378 -15.44004608 155.57376984 -15.44741821 154.25349426 C-15.45025862 152.82516504 -15.45297034 151.39683555 -15.45556641 149.96850586 C-15.46183001 148.47057436 -15.46847672 146.97264442 -15.47547913 145.47471619 C-15.49289936 141.3981209 -15.50344386 137.32153735 -15.51168466 133.24491405 C-15.5168331 130.69837172 -15.52290893 128.15183303 -15.52919579 125.60529327 C-15.54825152 117.63896603 -15.56248132 109.67264807 -15.57080775 101.7063024 C-15.58057982 92.50843142 -15.60689681 83.31080111 -15.64730865 74.11301494 C-15.67746546 67.00550657 -15.69227625 59.89806721 -15.69558877 52.79049611 C-15.69793994 48.54471877 -15.70690868 44.29919843 -15.73204994 40.05348969 C-15.75532797 36.0577824 -15.75956517 32.06250137 -15.74928856 28.06674385 C-15.748793 26.60182083 -15.75511941 25.13687686 -15.7688446 23.67201805 C-15.7865616 21.6686916 -15.77707271 19.66518009 -15.76631165 17.6618042 C-15.7687 16.54165798 -15.77108835 15.42151176 -15.77354908 14.26742172 C-14.97594769 9.23648244 -12.40801952 6.1402598 -8.65356445 2.83276367 C-5.46744802 0.5689441 -3.84702082 0.01880255 0 0 Z " fill="#F6C556" transform="translate(161.278564453125,458.854736328125)"/>
<path d="M0 0 C4.79674751 0.49723524 9.31701395 1.52444377 13.95703125 2.8125 C14.58606857 2.98628174 15.2151059 3.16006348 15.86320496 3.33911133 C17.17882431 3.70351063 18.49386966 4.06998828 19.80834961 4.43847656 C21.82335384 5.00304103 23.84019829 5.56061084 25.85742188 6.1171875 C35.71682143 8.85841071 35.71682143 8.85841071 38 10 C36.53413336 15.1073305 34.98621057 20.15639286 33.140625 25.140625 C32.82996094 25.98367188 32.51929688 26.82671875 32.19921875 27.6953125 C31.55940142 29.41729001 30.91076125 31.13601178 30.25390625 32.8515625 C27.82124734 39.34471734 27.82124734 39.34471734 29 46 C30.96106744 48.48342852 33.17856704 50.60600141 35.5 52.75 C36.69979006 53.88865426 37.8977957 55.02919261 39.09375 56.171875 C39.62677734 56.6678418 40.15980469 57.16380859 40.70898438 57.67480469 C42 59 42 59 43 61 C48.01482845 60.36340261 52.85733932 59.40944599 57.75 58.125 C58.40871094 57.96386719 59.06742188 57.80273438 59.74609375 57.63671875 C63.3772394 56.68658125 65.60489972 55.88500716 68 53 C71.5124908 46.20715658 73.1729841 38.80383591 74.75 31.375 C75.08064453 29.86873047 75.08064453 29.86873047 75.41796875 28.33203125 C75.95298256 25.88957688 76.48017929 23.44572436 77 21 C81.52135142 22.4036627 86.04200131 23.80955427 90.56201172 25.2175293 C92.10023153 25.69633553 93.63864229 26.17452874 95.17724609 26.65209961 C97.38689684 27.33807436 99.59585477 28.02624022 101.8046875 28.71484375 C102.83914505 29.03520851 102.83914505 29.03520851 103.89450073 29.36204529 C108.77225659 30.88612829 108.77225659 30.88612829 111 32 C111.4392659 45.5986586 111.82919834 58.11835462 107 71 C106.65614258 71.94552734 106.31228516 72.89105469 105.95800781 73.86523438 C98.22961924 94.90039725 91.05452351 110.75400879 69.89453125 120.75 C51.13931333 128.84941935 30.6709747 126.22604085 11.92871094 118.88964844 C6.0594021 116.18233687 0.96945795 112.0786634 -4 108 C-4.5789502 107.54592773 -5.15790039 107.09185547 -5.75439453 106.62402344 C-16.29934979 98.08557481 -23.13397747 85.96041603 -24.7109375 72.5234375 C-24.80632813 71.36070312 -24.90171875 70.19796875 -25 69 C-25.07476563 68.12601562 -25.14953125 67.25203125 -25.2265625 66.3515625 C-25.64168683 55.59606842 -21.65430426 45.1051131 -18.27148438 35.06103516 C-17.76073597 33.53105275 -17.26055987 31.9974968 -16.77148438 30.46044922 C-13.17254658 19.15192703 -8.54723246 8.54723246 0 0 Z " fill="#010100" transform="translate(784,318)"/>
<path d="M0 0 C9.21980963 10.16274471 14.23843182 24.03361718 18 37 C18.20044922 37.68594238 18.40089844 38.37188477 18.60742188 39.07861328 C23.88326562 57.79056073 24.90110031 76.80955377 15.23828125 94.1640625 C6.63267459 107.95397987 -3.23962652 115.10454498 -18 121 C-18.95471191 121.40871338 -18.95471191 121.40871338 -19.92871094 121.82568359 C-34.66018026 128.05282931 -54.2223694 129.08837535 -69.23828125 123.234375 C-70.14964844 122.82703125 -71.06101563 122.4196875 -72 122 C-72.98355469 121.63390625 -73.96710938 121.2678125 -74.98046875 120.890625 C-86.04721663 116.25203986 -95.2088787 106.76713544 -100.3125 95.9375 C-101.28014805 93.29792184 -102.15780011 90.67898742 -103 88 C-103.50104248 86.49276367 -103.50104248 86.49276367 -104.01220703 84.95507812 C-109.66181435 67.71228885 -112.25442755 52.12889041 -111 34 C-106.05342384 32.28711039 -101.10549296 30.57821574 -96.15625 28.87304688 C-94.47194969 28.29211922 -92.78802824 27.71009192 -91.10449219 27.12695312 C-88.68783188 26.29008842 -86.2698471 25.45715747 -83.8515625 24.625 C-83.0963028 24.36251465 -82.34104309 24.1000293 -81.56289673 23.82958984 C-76.22774341 22 -76.22774341 22 -74 22 C-73.65388672 23.31097656 -73.65388672 23.31097656 -73.30078125 24.6484375 C-72.79356655 26.56101785 -72.28484907 28.47334239 -71.74926758 30.37817383 C-70.68751516 34.19242082 -69.80676069 37.9576972 -69.1484375 41.86328125 C-67.91782533 48.73273789 -67.91782533 48.73273789 -65 55 C-60.08229387 57.9122586 -55.61022619 58.364444 -50 59 C-48.20548945 59.61678712 -46.41333192 60.24052117 -44.625 60.875 C-42.29256381 61.45757745 -42.29256381 61.45757745 -40 61 C-36.29375909 58.17504765 -33.76410955 54.71688974 -31 51 C-30.34 50.35289062 -29.68 49.70578125 -29 49.0390625 C-27.06006304 47.05582338 -25.96419242 45.60820715 -25 43 C-25.17290384 34.1127425 -29.11204461 25.65709386 -32.7487793 17.68579102 C-34.40703591 13.96973487 -35.27724907 11.88630306 -34 8 C-29.96380847 6.85236184 -25.92531782 5.71331955 -21.88452148 4.58203125 C-20.51146899 4.19634053 -19.13906115 3.80834688 -17.76733398 3.41796875 C-15.79056919 2.85584195 -13.81160079 2.3021569 -11.83203125 1.75 C-10.64327393 1.41484375 -9.4545166 1.0796875 -8.22973633 0.734375 C-5.30438925 0.0692118 -2.97461688 -0.33971121 0 0 Z " fill="#010100" transform="translate(207,317)"/>
<path d="M0 0 C4.63334785 0.90060251 9.1166651 2.29290173 13.62664795 3.67115784 C14.68396118 3.9908252 15.74127441 4.31049255 16.83062744 4.6398468 C19.05713482 5.31563785 21.28258399 5.9949241 23.50701904 6.67750549 C26.8932478 7.7135505 30.28496917 8.72994972 33.6774292 9.74537659 C35.84836584 10.40694463 38.01895109 11.06966706 40.18914795 11.73365784 C41.69729065 12.18240265 41.69729065 12.18240265 43.23590088 12.64021301 C50.18180588 14.79913875 57.00433548 17.16313445 61.40789795 23.21803284 C63.55496678 30.19600654 62.44912227 36.67402584 60.20477295 43.47193909 C59.97082321 44.21693161 59.73687347 44.96192413 59.49583435 45.72949219 C58.72800304 48.1669779 57.94293428 50.59853992 57.15789795 53.03053284 C56.33793173 55.61828422 55.52254887 58.20745161 54.70744324 60.79673767 C54.14195909 62.59229708 53.5750144 64.38739711 53.00666809 66.18205261 C50.95785868 72.6645152 48.98080994 79.16594306 47.0446167 85.68287659 C46.77442719 86.5916304 46.50423767 87.50038422 46.2258606 88.43667603 C45.17374259 91.98007154 44.12352579 95.52400829 43.07891846 99.06962585 C42.35756208 101.51601731 41.63115586 103.96086254 40.9039917 106.40553284 C40.69505783 107.12059494 40.48612396 107.83565704 40.27085876 108.5723877 C38.94035769 113.03020899 37.31242546 117.22237224 35.40789795 121.46803284 C32.96610694 120.00986082 30.53109443 118.54497808 28.11883545 117.03834534 C22.09014324 113.30821805 15.91863472 110.26542164 9.40789795 107.46803284 C9.40789795 106.80803284 9.40789795 106.14803284 9.40789795 105.46803284 C12.04789795 105.46803284 14.68789795 105.46803284 17.40789795 105.46803284 C17.40789795 89.95803284 17.40789795 74.44803284 17.40789795 58.46803284 C12.12789795 58.46803284 6.84789795 58.46803284 1.40789795 58.46803284 C-2.59210205 53.46803284 -2.59210205 53.46803284 -4.1038208 50.42506409 C-9.25707476 40.18618418 -20.31775507 34.48842948 -30.59210205 30.46803284 C-26.37366187 24.60908814 -21.8116882 19.13291093 -17.0569458 13.70753479 C-13.50549247 9.63208749 -10.34501438 5.44469373 -7.48272705 0.84693909 C-4.89335805 -1.04158831 -3.05391263 -0.44696368 0 0 Z " fill="#06D49F" transform="translate(630.5921020507813,306.53196716308594)"/>
<path d="M0 0 C7.14602968 3.97001649 9.39203374 9.59466387 11.6875 17.0625 C11.95111328 17.86880859 12.21472656 18.67511719 12.48632812 19.50585938 C14.375 25.40734578 14.375 25.40734578 14.375 28.875 C12.456875 29.2153125 12.456875 29.2153125 10.5 29.5625 C-0.41630147 32.0829565 -9.44232305 38.33099032 -16.625 46.875 C-17.75554868 48.91200197 -18.8428381 50.97392174 -19.875 53.0625 C-21.1125 54.650625 -22.35 56.23875 -23.625 57.875 C-28.905 57.875 -34.185 57.875 -39.625 57.875 C-39.625 73.385 -39.625 88.895 -39.625 104.875 C-36.985 104.875 -34.345 104.875 -31.625 104.875 C-31.625 105.205 -31.625 105.535 -31.625 105.875 C-32.35203125 106.02195312 -33.0790625 106.16890625 -33.828125 106.3203125 C-43.71620244 108.52611439 -52.01435451 112.62422525 -60.625 117.875 C-61.77408844 114.22651181 -62.91562291 110.57593329 -64.046875 106.921875 C-65.17193982 103.29666615 -66.33675732 99.68617457 -67.515625 96.078125 C-68.15662394 94.07303617 -68.79725139 92.06782854 -69.4375 90.0625 C-69.75146729 89.12140381 -70.06543457 88.18030762 -70.38891602 87.21069336 C-73.73405295 76.60214847 -72.69594575 66.8760267 -71.25 56 C-70.08568241 46.87894245 -69.07784975 37.76783328 -68.35986328 28.60009766 C-68.25714111 27.40006104 -68.25714111 27.40006104 -68.15234375 26.17578125 C-68.07101196 25.14191284 -68.07101196 25.14191284 -67.98803711 24.0871582 C-67.86823486 23.357146 -67.74843262 22.62713379 -67.625 21.875 C-67.52058594 20.87984375 -67.41617187 19.8846875 -67.30859375 18.859375 C-64.48335143 13.85128885 -59.47097103 13.32511627 -54.16015625 11.82421875 C-53.01590683 11.47994339 -51.87165741 11.13566803 -50.69273376 10.78096008 C-47.03077426 9.68487323 -43.35980314 8.62335557 -39.6875 7.5625 C-37.21612304 6.8297428 -34.74540968 6.09474344 -32.27539062 5.35742188 C-26.83836923 3.73812847 -21.39543656 2.14076335 -15.94642639 0.56230164 C-10.1001339 -1.16860244 -5.99634229 -1.86093382 0 0 Z " fill="#07D49E" transform="translate(384.625,307.125)"/>
<path d="M0 0 C10.61175178 13.79527731 15.96583925 38.91418722 14 56 C12.62376015 63.09730303 9.00840396 69.06910014 5 75 C4.55527344 75.70253906 4.11054688 76.40507812 3.65234375 77.12890625 C-1.8336227 84.60444987 -10.66884178 87.63959803 -19 91 C-20.12148437 91.45890625 -21.24296875 91.9178125 -22.3984375 92.390625 C-36.35403804 97.38230076 -50.91587578 96.20704972 -64.26171875 89.9375 C-72.9756116 85.00704589 -80.05487374 77.61702366 -83 68 C-84.06780037 64.08189584 -85.05692537 60.15640783 -85.984375 56.203125 C-86.63605173 53.44052677 -87.34988885 50.71040438 -88.140625 47.984375 C-90.19486947 40.87373414 -91.62982987 34.43549148 -91 27 C-89.58603098 26.49242138 -88.16868271 25.99425075 -86.75 25.5 C-85.96109375 25.2215625 -85.1721875 24.943125 -84.359375 24.65625 C-82 24 -82 24 -78 24 C-76.82677153 27.93557529 -75.66254629 31.87375727 -74.5 35.8125 C-74.16613281 36.93205078 -73.83226563 38.05160156 -73.48828125 39.20507812 C-73.17246094 40.27822266 -72.85664063 41.35136719 -72.53125 42.45703125 C-72.23798828 43.44678955 -71.94472656 44.43654785 -71.64257812 45.45629883 C-71 48 -71 48 -71 51 C-70.06885376 51.15130371 -70.06885376 51.15130371 -69.11889648 51.30566406 C-63.58877287 52.25290953 -58.16144627 53.41591268 -52.72265625 54.796875 C-51.46775391 55.11527344 -50.21285156 55.43367188 -48.91992188 55.76171875 C-46.97469857 56.26008989 -45.0295034 56.75868868 -43.08764648 57.27001953 C-41.17760465 57.77085068 -39.2626683 58.25289758 -37.34765625 58.734375 C-36.22367432 59.02538086 -35.09969238 59.31638672 -33.94165039 59.61621094 C-30.70262531 60.03879766 -29.620227 59.86913113 -27 58 C-25.47177154 56.58374545 -25.47177154 56.58374545 -24.1171875 54.91015625 C-23.59398926 54.2960791 -23.07079102 53.68200195 -22.53173828 53.04931641 C-21.98501465 52.39366699 -21.43829102 51.73801758 -20.875 51.0625 C-14.23371886 43.15837348 -14.23371886 43.15837348 -10.890625 39.87890625 C-6.14095572 35.48289721 -6.14095572 35.48289721 -3.5390625 29.78125 C-3.77184261 27.40172001 -4.34615432 25.29947974 -5 23 C-5.30766536 20.8355472 -5.59826145 18.66862391 -5.875 16.5 C-6.71962095 11.05475434 -8.07689997 6.15740462 -10 1 C-3.375 -1.125 -3.375 -1.125 0 0 Z " fill="#F3C455" transform="translate(201,334)"/>
<path d="M0 0 C3.16807706 0.6131762 6.01631115 1.79079496 9 3 C8.7827124 3.66008057 8.5654248 4.32016113 8.34155273 5.00024414 C7.35824872 8.0162562 6.3977533 11.03907391 5.4375 14.0625 C5.09525391 15.10083984 4.75300781 16.13917969 4.40039062 17.20898438 C1.86379556 25.02488375 1.86379556 25.02488375 3 33 C4.83830433 35.24713858 6.49672672 37.02403592 8.625 38.9375 C9.72583069 39.97849233 10.82479617 41.02146066 11.921875 42.06640625 C12.45361328 42.56672363 12.98535156 43.06704102 13.53320312 43.58251953 C16.02162868 45.98727965 18.22936352 48.6135614 20.46484375 51.25 C22.04553342 53.05190579 23.71331961 54.71082589 25.4375 56.375 C28 59 28 59 28 61 C32.42950345 59.89884159 36.85860463 58.79608384 41.28735352 57.69189453 C42.7914779 57.31711432 44.29570797 56.94275802 45.80004883 56.56884766 C47.97245307 56.02880683 50.14446237 55.48720148 52.31640625 54.9453125 C52.98023819 54.78064484 53.64407013 54.61597717 54.32801819 54.44631958 C56.22093429 53.97314639 58.11052617 53.48673696 60 53 C61.26473145 52.70335449 62.52946289 52.40670898 63.83251953 52.10107422 C66.97007833 51.2903939 66.97007833 51.2903939 68.49731445 49.37109375 C68.92596802 48.41396484 68.92596802 48.41396484 69.36328125 47.4375 C69.69199219 46.727146 70.02070312 46.01679199 70.359375 45.28491211 C70.83117187 44.15388062 70.83117187 44.15388062 71.3125 43 C71.82103516 41.85446655 71.82103516 41.85446655 72.33984375 40.68579102 C74.70088033 35.19626477 76.24477202 29.94742036 77 24 C81.17587745 22.60804085 83.13474776 24.17676781 87 26 C87.88407159 38.59802017 83.0703385 50.27953179 78.6875 61.875 C78.33308838 62.83744629 77.97867676 63.79989258 77.61352539 64.79150391 C73.3363085 75.76081663 66.72321624 84.28923595 56 89.44140625 C39.12204693 96.70140812 22.84063043 94.67835315 6 88 C-5.18723928 82.31958511 -14.97622055 71.20740137 -19.3125 59.4375 C-21.76103974 47.13544274 -19.55317334 36.29152007 -15.57495117 24.67163086 C-14.8052602 22.41628597 -14.07549936 20.15063622 -13.34960938 17.88085938 C-12.86685567 16.41851872 -12.38190833 14.9569 -11.89453125 13.49609375 C-11.57232353 12.4975663 -11.57232353 12.4975663 -11.24360657 11.47886658 C-9.17797776 5.54237779 -6.81391049 0 0 0 Z " fill="#F4C455" transform="translate(794,335)"/>
<path d="M0 0 C1.32696648 -0.00956978 1.32696648 -0.00956978 2.68074036 -0.01933289 C3.63905258 -0.02044571 4.59736481 -0.02155853 5.5847168 -0.02270508 C6.56885056 -0.02603348 7.55298431 -0.02936188 8.56694031 -0.03279114 C10.65253227 -0.03786065 12.73813236 -0.04019946 14.82373047 -0.04003906 C18.01047215 -0.04222027 21.19686478 -0.06036123 24.38354492 -0.0793457 C26.40893436 -0.08228069 28.43432545 -0.08426478 30.4597168 -0.08520508 C31.41195633 -0.09239059 32.36419586 -0.09957611 33.34529114 -0.10697937 C42.5082457 -0.07544935 42.5082457 -0.07544935 45.72143555 2.14526367 C54.62857238 14.09490293 54.74234473 28.0656599 54.22143555 42.27026367 C54.18117379 44.21159477 54.14469585 46.15300814 54.11206055 48.09448242 C54.0252574 52.78016744 53.88799416 57.46176364 53.72143555 62.14526367 C46.19975329 64.5425944 39.35962977 65.66674496 31.47143555 65.58276367 C29.97036255 65.57249146 29.97036255 65.57249146 28.43896484 65.56201172 C14.03631829 65.25256401 1.32757682 60.47433613 -11.45849609 54.0612793 C-12.53327965 53.52259216 -12.53327965 53.52259216 -13.629776 52.97302246 C-14.17387619 52.69986206 -14.71797638 52.42670166 -15.27856445 52.14526367 C-15.3776973 46.41614795 -15.45015785 40.68753529 -15.49829102 34.95776367 C-15.51836351 33.01008401 -15.54562777 31.0624643 -15.58032227 29.11499023 C-15.62903297 26.30982647 -15.65157686 23.5054618 -15.66918945 20.69995117 C-15.68983459 19.83409393 -15.71047974 18.96823669 -15.73175049 18.07614136 C-15.73377149 12.58824396 -14.93503337 9.498481 -11.27856445 5.14526367 C-7.42787438 1.75298908 -5.11069867 0.02497885 0 0 Z " fill="#07D59F" transform="translate(793.278564453125,458.854736328125)"/>
<path d="M0 0 C1.32696648 -0.00956978 1.32696648 -0.00956978 2.68074036 -0.01933289 C3.63905258 -0.02044571 4.59736481 -0.02155853 5.5847168 -0.02270508 C6.56885056 -0.02603348 7.55298431 -0.02936188 8.56694031 -0.03279114 C10.65253227 -0.03786065 12.73813236 -0.04019946 14.82373047 -0.04003906 C18.01047215 -0.04222027 21.19686478 -0.06036123 24.38354492 -0.0793457 C26.40893436 -0.08228069 28.43432545 -0.08426478 30.4597168 -0.08520508 C31.41195633 -0.09239059 32.36419586 -0.09957611 33.34529114 -0.10697937 C42.5082457 -0.07544935 42.5082457 -0.07544935 45.72143555 2.14526367 C54.62857238 14.09490293 54.74234473 28.0656599 54.22143555 42.27026367 C54.18117379 44.21159477 54.14469585 46.15300814 54.11206055 48.09448242 C54.0252574 52.78016744 53.88799416 57.46176364 53.72143555 62.14526367 C46.19975329 64.5425944 39.35962977 65.66674496 31.47143555 65.58276367 C29.97036255 65.57249146 29.97036255 65.57249146 28.43896484 65.56201172 C14.03631829 65.25256401 1.32757682 60.47433613 -11.45849609 54.0612793 C-12.53327965 53.52259216 -12.53327965 53.52259216 -13.629776 52.97302246 C-14.17387619 52.69986206 -14.71797638 52.42670166 -15.27856445 52.14526367 C-15.3776973 46.41614795 -15.45015785 40.68753529 -15.49829102 34.95776367 C-15.51836351 33.01008401 -15.54562777 31.0624643 -15.58032227 29.11499023 C-15.62903297 26.30982647 -15.65157686 23.5054618 -15.66918945 20.69995117 C-15.68983459 19.83409393 -15.71047974 18.96823669 -15.73175049 18.07614136 C-15.73377149 12.58824396 -14.93503337 9.498481 -11.27856445 5.14526367 C-7.42787438 1.75298908 -5.11069867 0.02497885 0 0 Z " fill="#07D59F" transform="translate(161.278564453125,458.854736328125)"/>
<path d="M0 0 C3.06841977 0.3172434 4.57645139 0.53643873 6.6953125 2.85546875 C7.16710937 3.62503906 7.63890625 4.39460938 8.125 5.1875 C8.62773438 6.00476563 9.13046875 6.82203125 9.6484375 7.6640625 C14.34937335 15.78880134 16.31880132 23.04629817 16.22705078 32.34375 C16.22734283 33.13495743 16.22763489 33.92616486 16.22793579 34.74134827 C16.2265548 37.32768144 16.21105231 39.91371785 16.1953125 42.5 C16.19157798 44.30460452 16.18873308 46.10921108 16.18673706 47.91381836 C16.17913514 52.64188324 16.15951651 57.36982342 16.1373291 62.09783936 C16.11679623 66.9310945 16.10771949 71.76436997 16.09765625 76.59765625 C16.07626712 86.06515867 16.0421731 95.53256893 16 105 C12.15429513 107.15504594 10.09962687 106.97601395 5.75 106.125 C4.67234375 105.92132812 3.5946875 105.71765625 2.484375 105.5078125 C1.66453125 105.34023438 0.8446875 105.17265625 0 105 C0 104.01 0 103.02 0 102 C-0.66 102 -1.32 102 -2 102 C-2.33 99.69 -2.66 97.38 -3 95 C-3.66 95 -4.32 95 -5 95 C-5 93.35 -5 91.7 -5 90 C-5.66 90 -6.32 90 -7 90 C-10 83.375 -10 83.375 -10 80 C-10.66 80 -11.32 80 -12 80 C-12.2475 79.21625 -12.495 78.4325 -12.75 77.625 C-14.07108912 73.79384155 -15.60511434 70.09312625 -17.1953125 66.3671875 C-18 64 -18 64 -18 60 C-18.66 60 -19.32 60 -20 60 C-20 58.35 -20 56.7 -20 55 C-20.66 55 -21.32 55 -22 55 C-22.33 52.36 -22.66 49.72 -23 47 C-23.66 47 -24.32 47 -25 47 C-27.5393228 43.58168085 -28.3636198 41.24223102 -28 37 C-28.66 37 -29.32 37 -30 37 C-30.68473395 34.67190457 -31.34853151 32.33762223 -32 30 C-32.268125 29.0925 -32.53625 28.185 -32.8125 27.25 C-33 25 -33 25 -31.6875 23.1875 C-30 22 -30 22 -28 22 C-28 21.34 -28 20.68 -28 20 C-27.01 20 -26.02 20 -25 20 C-25 19.34 -25 18.68 -25 18 C-23.35 17.67 -21.7 17.34 -20 17 C-20 16.34 -20 15.68 -20 15 C-19.360625 14.87625 -18.72125 14.7525 -18.0625 14.625 C-17.381875 14.41875 -16.70125 14.2125 -16 14 C-15.67 13.34 -15.34 12.68 -15 12 C-10.5 9 -10.5 9 -8 9 C-8 8.34 -8 7.68 -8 7 C-7.01 7 -6.02 7 -5 7 C-5 6.34 -5 5.68 -5 5 C-4.34 5 -3.68 5 -3 5 C-2.67 4.01 -2.34 3.02 -2 2 C-1.34 2 -0.68 2 0 2 C0 1.34 0 0.68 0 0 Z " fill="#09D49E" transform="translate(655,441)"/>
<path d="M0 0 C0.10041887 3.91015628 0.17218019 7.81979251 0.21972656 11.73095703 C0.2492475 13.69981341 0.30012677 15.66831298 0.3515625 17.63671875 C0.49487736 31.75323258 -3.50657824 44.2729559 -13.25 54.75 C-24.80073904 65.53747435 -38.03018531 68.17339844 -53.3046875 68.09765625 C-54.38380402 68.0962413 -55.46292053 68.09482635 -56.57473755 68.09336853 C-60.00818702 68.08778844 -63.44157036 68.07523955 -66.875 68.0625 C-69.20833239 68.05748243 -71.5416658 68.05291997 -73.875 68.04882812 C-79.58335575 68.03782553 -85.29167315 68.02110721 -91 68 C-91 67.34 -91 66.68 -91 66 C-90.34 66 -89.68 66 -89 66 C-89 65.34 -89 64.68 -89 64 C-86.525 63.505 -86.525 63.505 -84 63 C-84 62.34 -84 61.68 -84 61 C-83.360625 60.731875 -82.72125 60.46375 -82.0625 60.1875 C-79.66868314 59.11332248 -79.66868314 59.11332248 -79 56 C-78.01 56 -77.02 56 -76 56 C-76 55.34 -76 54.68 -76 54 C-74.02 53.505 -74.02 53.505 -72 53 C-72 52.34 -72 51.68 -72 51 C-71.01 51 -70.02 51 -69 51 C-68.67 50.01 -68.34 49.02 -68 48 C-67.34 48 -66.68 48 -66 48 C-66 47.34 -66 46.68 -66 46 C-61.61538462 43 -61.61538462 43 -59 43 C-59 42.34 -59 41.68 -59 41 C-58.01 41 -57.02 41 -56 41 C-56 40.34 -56 39.68 -56 39 C-55.34 39 -54.68 39 -54 39 C-53.67 38.01 -53.34 37.02 -53 36 C-51.68 36 -50.36 36 -49 36 C-49 35.34 -49 34.68 -49 34 C-46.76530937 31.29484818 -44.069454 29.65278292 -41 28 C-40.34 28 -39.68 28 -39 28 C-39 27.34 -39 26.68 -39 26 C-38.01 26 -37.02 26 -36 26 C-36 25.34 -36 24.68 -36 24 C-34.75 22.375 -34.75 22.375 -33 21 C-31.68 21 -30.36 21 -29 21 C-29 20.34 -29 19.68 -29 19 C-27.23042094 16.6716065 -26.18416484 16.04711194 -23.3125 15.3125 C-22.549375 15.209375 -21.78625 15.10625 -21 15 C-21 14.34 -21 13.68 -21 13 C-20.01 13 -19.02 13 -18 13 C-18 12.34 -18 11.68 -18 11 C-17.34 11 -16.68 11 -16 11 C-16 10.34 -16 9.68 -16 9 C-12.535 8.505 -12.535 8.505 -9 8 C-8.67 7.01 -8.34 6.02 -8 5 C-7.34 5 -6.68 5 -6 5 C-6 4.34 -6 3.68 -6 3 C-5.01 3 -4.02 3 -3 3 C-3 2.34 -3 1.68 -3 1 C-1 0 -1 0 0 0 Z " fill="#09D59E" transform="translate(671,608)"/>
<path d="M0 0 C7.03968228 4.20721753 12.30103014 10.37269187 14.3203125 18.38671875 C15.48797611 27.37529595 14.16638961 35.36858654 8.58984375 42.64453125 C2.3241981 49.42293432 -3.88483876 52.52661124 -13.1171875 52.94921875 C-21.50521322 52.65558891 -27.55026514 49.64883266 -33.6171875 43.94921875 C-37.9018722 39.29151444 -40.07215348 34.70507259 -40.6796875 28.38671875 C-40.75574219 27.64421875 -40.83179688 26.90171875 -40.91015625 26.13671875 C-41.36601128 18.25165874 -38.88573622 12.54742217 -34.10546875 6.34375 C-25.04917257 -3.55695608 -12.15507437 -5.56944726 0 0 Z " fill="#F2C455" transform="translate(752.6796875,539.61328125)"/>
<path d="M0 0 C6.88145701 4.14043968 11.66407678 9.96524558 14.01171875 17.6484375 C14.9623715 26.0141817 14.58570791 32.92021136 10.32421875 40.3984375 C7.76171875 42.7734375 7.76171875 42.7734375 5.32421875 44.3984375 C4.91171875 45.0584375 4.49921875 45.7184375 4.07421875 46.3984375 C0.42499066 50.56898388 -4.41633274 52.09097197 -9.8046875 52.82421875 C-19.46793576 53.22352653 -26.41053072 50.63819911 -33.55078125 44.1484375 C-39.66153595 37.41649497 -41.43722872 30.64420351 -41.12109375 21.61328125 C-39.96621718 13.27588283 -35.31234666 6.45295297 -28.67578125 1.3984375 C-19.87507658 -4.31608557 -9.43573301 -4.28482562 0 0 Z " fill="#F3C455" transform="translate(253.67578125,560.6015625)"/>
<path d="M0 0 C5.05904193 0.34225977 9.41087693 2.21153299 14.0234375 4.16015625 C14.68577393 4.43436401 15.34811035 4.70857178 16.03051758 4.99108887 C18.48155776 6.00797992 20.92801986 7.03587758 23.375 8.0625 C28.86125 10.351875 34.3475 12.64125 40 15 C40 28.2 40 41.4 40 55 C34.34875 57.31 28.6975 59.62 22.875 62 C21.10237793 62.73089844 19.32975586 63.46179688 17.50341797 64.21484375 C16.08334198 64.78988843 14.66295216 65.36415894 13.2421875 65.9375 C12.51717041 66.23978516 11.79215332 66.54207031 11.04516602 66.85351562 C6.88541317 68.51911636 3.56553057 69.45506534 -1 69 C-2.82349528 67.17650472 -2.13724306 64.30933828 -2.14526367 61.85961914 C-2.15164352 60.54478043 -2.15802338 59.22994171 -2.16459656 57.8752594 C-2.16612511 56.42855872 -2.16723914 54.98185755 -2.16796875 53.53515625 C-2.1711796 52.06164008 -2.17454354 50.58812424 -2.17805481 49.11460876 C-2.18405252 46.0217922 -2.18589406 42.92900361 -2.18530273 39.83618164 C-2.18520108 35.86686232 -2.19885321 31.89772178 -2.21607494 27.92844486 C-2.22717637 24.88389762 -2.22922252 21.83939383 -2.22869301 18.79482841 C-2.22987594 17.33115459 -2.23431516 15.86747975 -2.24202538 14.40382576 C-2.2517872 12.35916558 -2.24769288 10.3144533 -2.24291992 8.26977539 C-2.24434494 7.10474991 -2.24576996 5.93972443 -2.24723816 4.73939514 C-2 2 -2 2 0 0 Z " fill="#F5C556" transform="translate(261,483)"/>
<path d="M0 0 C1.57728479 1.57728479 1.214178 3.21702357 1.30395508 5.40869141 C1.34261185 6.34701813 1.38126862 7.28534485 1.4210968 8.25210571 C1.55813794 12.56719144 1.65721585 16.88217607 1.73461914 21.19873047 C1.78631045 23.47282378 1.86130704 25.74651319 1.96020508 28.01904297 C2.76696989 46.88936815 2.76696989 46.88936815 -1.55322266 52.04980469 C-7.84596618 55.82564374 -14.29388323 57.16174947 -21.5625 57 C-25.23613188 56.8357967 -25.23613188 56.8357967 -28.74194336 57.6875 C-32.27386849 58.17629491 -34.59944447 56.60627221 -37.75 55.0625 C-38.92046875 54.49660156 -40.0909375 53.93070313 -41.296875 53.34765625 C-42.63492188 52.68056641 -42.63492188 52.68056641 -44 52 C-44.09884645 46.92803651 -44.17145653 41.856633 -44.21972656 36.78393555 C-44.23984739 35.05825027 -44.26714748 33.33263322 -44.30175781 31.60717773 C-44.35025758 29.1272703 -44.37296304 26.64826372 -44.390625 24.16796875 C-44.41127014 23.39599655 -44.43191528 22.62402435 -44.45318604 21.82865906 C-44.45542812 16.48162531 -44.45542812 16.48162531 -42.17919922 14.07446289 C-39.14998654 12.58089747 -36.05388965 11.37593769 -32.875 10.25 C-31.44735943 9.7333079 -30.02029811 9.21501318 -28.59375 8.6953125 C-27.84738281 8.42364258 -27.10101562 8.15197266 -26.33203125 7.87207031 C-23.92319955 6.97128023 -21.53930802 6.02148993 -19.15625 5.0546875 C-17.95959717 4.57273926 -17.95959717 4.57273926 -16.73876953 4.08105469 C-15.19492778 3.45662954 -13.65406307 2.82477848 -12.11669922 2.18457031 C-7.93170177 0.50677972 -4.59531894 -0.46660162 0 0 Z " fill="#F4C456" transform="translate(729,483)"/>
<path d="M0 0 C30.69 0 61.38 0 93 0 C93 6.27 93 12.54 93 19 C62.31 19 31.62 19 0 19 C0 12.73 0 6.46 0 0 Z " fill="#F7C656" transform="translate(541,379)"/>
<path d="M0 0 C30.69 0 61.38 0 93 0 C93 6.27 93 12.54 93 19 C62.31 19 31.62 19 0 19 C0 12.73 0 6.46 0 0 Z " fill="#F7C656" transform="translate(359,379)"/>
<path d="M0 0 C0.66 0 1.32 0 2 0 C2.6975648 15.26891834 0.31796133 27.72006253 -9.58984375 39.96484375 C-17.69115858 48.67613994 -28.36206327 53.37957022 -40 55 C-42.82954674 55.08059165 -45.63258298 55.11695324 -48.4609375 55.09765625 C-49.25150543 55.0962413 -50.04207336 55.09482635 -50.8565979 55.09336853 C-53.36277166 55.08780504 -55.86885358 55.07525944 -58.375 55.0625 C-60.08202995 55.05748028 -61.78906132 55.0529182 -63.49609375 55.04882812 C-67.66409748 55.03784759 -71.83203321 55.02060839 -76 55 C-75.01 54.505 -75.01 54.505 -74 54 C-74 53.34 -74 52.68 -74 52 C-73.01 52 -72.02 52 -71 52 C-71 51.34 -71 50.68 -71 50 C-69.02 49.505 -69.02 49.505 -67 49 C-67 48.34 -67 47.68 -67 47 C-66.34 47 -65.68 47 -65 47 C-65 46.34 -65 45.68 -65 45 C-64.01 45 -63.02 45 -62 45 C-62 44.34 -62 43.68 -62 43 C-60.68 43 -59.36 43 -58 43 C-58 42.34 -58 41.68 -58 41 C-53.61538462 38 -53.61538462 38 -51 38 C-51 37.34 -51 36.68 -51 36 C-50.34 36 -49.68 36 -49 36 C-49 35.34 -49 34.68 -49 34 C-47.35 34 -45.7 34 -44 34 C-44 33.34 -44 32.68 -44 32 C-43.34 32 -42.68 32 -42 32 C-42 31.34 -42 30.68 -42 30 C-41.34 30 -40.68 30 -40 30 C-40 29.01 -40 28.02 -40 27 C-38.68 27 -37.36 27 -36 27 C-36 26.34 -36 25.68 -36 25 C-35.01 25 -34.02 25 -33 25 C-33 24.34 -33 23.68 -33 23 C-32.34 23 -31.68 23 -31 23 C-31 22.01 -31 21.02 -31 20 C-29.68 20 -28.36 20 -27 20 C-27 19.34 -27 18.68 -27 18 C-26.01 18 -25.02 18 -24 18 C-24 17.34 -24 16.68 -24 16 C-22.68 16 -21.36 16 -20 16 C-20 15.34 -20 14.68 -20 14 C-15.61538462 11 -15.61538462 11 -13 11 C-13 10.34 -13 9.68 -13 9 C-12.34 9 -11.68 9 -11 9 C-11 8.34 -11 7.68 -11 7 C-9.35 7 -7.7 7 -6 7 C-6 6.34 -6 5.68 -6 5 C-5.34 5 -4.68 5 -4 5 C-4 4.34 -4 3.68 -4 3 C-2.68 2.67 -1.36 2.34 0 2 C0 1.34 0 0.68 0 0 Z " fill="#0BD49D" transform="translate(737,649)"/>
<path d="M0 0 C1.35223065 2.70446131 0.67246335 3.70675439 -0.21582031 6.56640625 C-0.65187592 7.98928955 -0.65187592 7.98928955 -1.09674072 9.44091797 C-1.42059753 10.47104004 -1.74445435 11.50116211 -2.078125 12.5625 C-2.5689859 14.15408936 -2.5689859 14.15408936 -3.06976318 15.77783203 C-4.122963 19.18739523 -5.18628315 22.59370491 -6.25 26 C-6.95250402 28.26671611 -7.6543352 30.53364086 -8.35546875 32.80078125 C-9.94637936 37.94341133 -11.5421396 43.08448137 -13.1505127 48.22167969 C-13.72844501 50.11185636 -14.28456341 52.00881049 -14.82116699 53.91113281 C-15.07837524 54.81959961 -15.3355835 55.72806641 -15.60058594 56.6640625 C-15.82325134 57.47568848 -16.04591675 58.28731445 -16.27532959 59.12353516 C-17 61 -17 61 -19 62 C-19.59425781 61.55269531 -20.18851563 61.10539062 -20.80078125 60.64453125 C-26.92112384 56.18039334 -33.05062567 52.96403027 -40 50 C-41.33869833 49.34417304 -42.67414891 48.68142579 -44 48 C-44 47.34 -44 46.68 -44 46 C-41.36 46 -38.72 46 -36 46 C-36 33.79 -36 21.58 -36 9 C-24.1875 6.75 -24.1875 6.75 -20.53588867 6.06933594 C-13.39790691 4.67422995 -6.7511137 2.70485742 0 0 Z " fill="#F4C455" transform="translate(684,366)"/>
<path d="M0 0 C17.48103179 -0.62185489 32.30307005 0.74464939 45.75 13.25 C50.37557048 18.1715193 54.67366863 24.29123086 56 31 C55.38125 30.505 54.7625 30.01 54.125 29.5 C48.4219973 26.76255871 43.07091753 27.18927543 37.14160156 29.22460938 C32.73312282 30.86443898 28.39755947 32.67674298 24.0625 34.5 C21.80869838 35.43232541 19.55299048 36.35965682 17.29502869 37.28186035 C15.89878916 37.85372468 14.50522024 38.43216476 13.11476135 39.01794434 C10.23588805 40.2107269 8.15063719 41 5 41 C4.98018066 40.42668945 4.96036133 39.85337891 4.93994141 39.26269531 C4.85389525 21.98863324 4.85389525 21.98863324 0.93359375 5.375 C0 3 0 3 0 0 Z " fill="#06D39D" transform="translate(680,447)"/>
<path d="M0 0 C0.82242188 0.00902344 1.64484375 0.01804687 2.4921875 0.02734375 C4.49492083 0.05063135 6.49750154 0.08649041 8.5 0.125 C8.22285156 0.8984375 7.94570313 1.671875 7.66015625 2.46875 C7.29792969 3.5103125 6.93570313 4.551875 6.5625 5.625 C6.20285156 6.6459375 5.84320313 7.666875 5.47265625 8.71875 C3.3363708 16.20003882 3.24688325 23.89549055 2.9375 31.625 C2.87272461 33.14480469 2.87272461 33.14480469 2.80664062 34.6953125 C2.70150808 37.1717679 2.59936163 39.64830749 2.5 42.125 C0.38297789 41.27819116 -1.73400735 40.43129155 -3.85083008 39.58398438 C-5.66905107 38.85715434 -7.48790721 38.13191132 -9.30737305 37.40820312 C-13.52816973 35.72717387 -17.74080394 34.03563634 -21.921875 32.2578125 C-22.58437256 31.98018066 -23.24687012 31.70254883 -23.92944336 31.41650391 C-25.70250329 30.67123484 -27.47057367 29.91412691 -29.23828125 29.15625 C-34.29996487 27.55590931 -38.06873817 27.50044938 -42.9375 29.625 C-43.783125 30.12 -44.62875 30.615 -45.5 31.125 C-42.66845113 20.08195942 -34.4197179 11.42107863 -24.9140625 5.51953125 C-16.69805102 1.20928523 -9.171438 -0.19418354 0 0 Z " fill="#F3C354" transform="translate(298.5,446.875)"/>
<path d="M0 0 C4.41643597 -0.11779579 8.83245914 -0.18778111 13.25 -0.25 C14.48492188 -0.28351563 15.71984375 -0.31703125 16.9921875 -0.3515625 C27.73625023 -0.4646579 37.00126497 1.48651069 46.0625 7.5 C47.37927734 8.35078125 47.37927734 8.35078125 48.72265625 9.21875 C50.95777586 10.96697392 52.42944203 12.6518871 54 15 C53.01 15 52.02 15 51 15 C51 15.66 51 16.32 51 17 C49.625 18.625 49.625 18.625 48 20 C47.34 20 46.68 20 46 20 C46 20.66 46 21.32 46 22 C45.01 22 44.02 22 43 22 C43 22.66 43 23.32 43 24 C40.4385343 26.29648649 39.52032428 27 36 27 C35.505 28.485 35.505 28.485 35 30 C33.68 30 32.36 30 31 30 C31 30.66 31 31.32 31 32 C28.525 32.495 28.525 32.495 26 33 C26 33.66 26 34.32 26 35 C25.01 35 24.02 35 23 35 C23 35.66 23 36.32 23 37 C21.02 37.495 21.02 37.495 19 38 C18.67 39.32 18.34 40.64 18 42 C17.34 42 16.68 42 16 42 C15.690625 40.865625 15.38125 39.73125 15.0625 38.5625 C14.37075469 35.21224901 14.37075469 35.21224901 13 34 C12.95936168 32.33382885 12.957279 30.66611905 13 29 C12.34 29 11.68 29 11 29 C10.67 26.03 10.34 23.06 10 20 C9.34 20 8.68 20 8 20 C8 19.01 8 18.02 8 17 C7.34 17 6.68 17 6 17 C3.54983204 11.43143646 1.44573223 5.92242941 0 0 Z " fill="#E9496F" transform="translate(604,426)"/>
<path d="M0 0 C0.65484375 0.0721875 1.3096875 0.144375 1.984375 0.21875 C12.56183771 1.29442417 22.39271498 1.0607285 33 0 C33 9.24 33 18.48 33 28 C35.64 28 38.28 28 41 28 C41 28.33 41 28.66 41 29 C40.27296875 29.14695312 39.5459375 29.29390625 38.796875 29.4453125 C28.90879756 31.65111439 20.61064549 35.74922525 12 41 C9.02478234 31.55334116 6.09146396 22.09380369 3.1875 12.625 C2.87353271 11.60849365 2.55956543 10.5919873 2.23608398 9.54467773 C1.94548096 8.59407471 1.65487793 7.64347168 1.35546875 6.6640625 C1.09403076 5.81279785 0.83259277 4.9615332 0.56323242 4.08447266 C0 2 0 2 0 0 Z " fill="#F4C455" transform="translate(312,384)"/>
<path d="M0 0 C0.09938095 4.16253275 0.17170617 8.32442479 0.21972656 12.48779297 C0.23975843 13.90197795 0.26699248 15.31608097 0.30175781 16.72998047 C0.35065489 18.77071419 0.37305123 20.8103469 0.390625 22.8515625 C0.41157227 24.07697754 0.43251953 25.30239258 0.45410156 26.56494141 C-0.2346121 31.77472701 -2.71260755 34.80916199 -6.5 38.3125 C-11.00684341 41.3546193 -15.01582014 41.11898484 -20.390625 41.09765625 C-21.09523865 41.0962413 -21.79985229 41.09482635 -22.52581787 41.09336853 C-24.76725584 41.08778933 -27.00859243 41.07524073 -29.25 41.0625 C-30.77343605 41.05748231 -32.29687368 41.05291987 -33.8203125 41.04882812 C-37.54690772 41.03782674 -41.27344396 41.02057646 -45 41 C-41.21325606 36.4793132 -37.31429612 32.1501117 -33.125 28 C-32.60180176 27.47946045 -32.07860352 26.9589209 -31.53955078 26.42260742 C-28.13020336 23.05470944 -24.64360781 19.81691743 -20.9921875 16.7109375 C-18.61478395 14.66916739 -16.31211561 12.55283981 -14 10.4375 C-2.43653682 0 -2.43653682 0 0 0 Z " fill="#08D49E" transform="translate(847,593)"/>
<path d="M0 0 C4.19293124 5.3909116 5.51266896 10.41047917 5.5625 17.1875 C5.57667969 17.86425781 5.59085938 18.54101562 5.60546875 19.23828125 C5.50710175 24.25499807 4.10325323 27.12805101 1 31 C-4.06440531 35.46149991 -7.02964341 36.14412679 -13.6328125 36.09765625 C-14.76056595 36.09553383 -14.76056595 36.09553383 -15.91110229 36.09336853 C-18.3157751 36.08776465 -20.72035527 36.07521157 -23.125 36.0625 C-24.75390491 36.0574855 -26.38281127 36.0529225 -28.01171875 36.04882812 C-32.00784827 36.03779397 -36.00390842 36.02052679 -40 36 C-36.21325606 31.4793132 -32.31429612 27.1501117 -28.125 23 C-27.60180176 22.47946045 -27.07860352 21.9589209 -26.53955078 21.42260742 C-23.13751055 18.06192779 -19.65882978 14.83025433 -16.015625 11.73046875 C-12.64376916 8.83563903 -9.38276258 5.81707418 -6.1015625 2.8203125 C-2.84549356 0 -2.84549356 0 0 0 Z " fill="#08D49E" transform="translate(210,598)"/>
<path d="M0 0 C5.05902983 0.34225895 9.41099857 2.21179787 14.0234375 4.16015625 C14.76961334 4.46948593 15.51578918 4.77881561 16.28457642 5.09751892 C18.65056311 6.07993345 21.01278239 7.07106181 23.375 8.0625 C24.98543563 8.73300211 26.5961104 9.40293014 28.20703125 10.07226562 C32.14081959 11.70821278 36.07125461 13.35198102 40 15 C40 17.31 40 19.62 40 22 C31.49077014 25.60997631 22.75901464 26.68605777 13.9375 23.4375 C12.27631069 22.65687608 10.6309971 21.84188602 9 21 C7.98808594 20.53722656 6.97617187 20.07445312 5.93359375 19.59765625 C2.80523527 17.9635584 0.43959658 16.55727656 -2 14 C-3.03796394 9.84282135 -2.94332797 6.17216866 -2 2 C-1.34 1.34 -0.68 0.68 0 0 Z " fill="#09D39D" transform="translate(261,483)"/>
<path d="M0 0 C4.59053177 3.23636748 6.34271487 5.62149418 9.66796875 10.609375 C-8.81203125 10.609375 -27.29203125 10.609375 -46.33203125 10.609375 C-33.43598919 -4.4360074 -18.35746451 -10.94682976 0 0 Z " fill="#05D39D" transform="translate(606.33203125,354.390625)"/>
<path d="M0 0 C4.59053177 3.23636748 6.34271487 5.62149418 9.66796875 10.609375 C-8.81203125 10.609375 -27.29203125 10.609375 -46.33203125 10.609375 C-33.43598919 -4.4360074 -18.35746451 -10.94682976 0 0 Z " fill="#05D39D" transform="translate(423.33203125,354.390625)"/>
<path d="M0 0 C-1.27477262 19.77193061 -3.48167162 39.35557235 -6 59 C-8.22317453 56.77682547 -8.55158389 55.64580645 -9.3671875 52.66796875 C-9.61130371 51.79317871 -9.85541992 50.91838867 -10.10693359 50.01708984 C-10.36039551 49.0833252 -10.61385742 48.14956055 -10.875 47.1875 C-12.93361429 39.60302804 -12.93361429 39.60302804 -15.28125 32.10546875 C-17.97315214 24.1547435 -20.17826809 16.43721279 -16.3125 8.5625 C-11.73403968 3.489071 -7.17469386 0 0 0 Z " fill="#E7486E" transform="translate(318,324)"/>
<path d="M0 0 C4.98669007 2.49334503 8.49675474 5.99350949 11 11 C11.54360446 15.95482094 11.56437074 19.87125852 9.3125 24.375 C6.53604336 27.52665348 3.77376371 30.11311814 0 32 C-1.70702735 32.06996014 -3.41668003 32.08440154 -5.125 32.0625 C-6.03507812 32.05347656 -6.94515625 32.04445313 -7.8828125 32.03515625 C-8.58148438 32.02355469 -9.28015625 32.01195312 -10 32 C-10.93423645 28.98968256 -11.04449911 28.13349732 -10 25 C-9.34394164 19.19856966 -9.20675356 14.50781055 -12.5625 9.5625 C-13.27599609 8.66724609 -13.27599609 8.66724609 -14.00390625 7.75390625 C-15 6 -15 6 -14.90234375 3.90234375 C-14 2 -14 2 -12.2421875 0.7734375 C-8.18678234 -0.62546533 -4.22575629 -0.54159218 0 0 Z " fill="#EEC154" transform="translate(303,569)"/>
<path d="M0 0 C0.91007813 0.00902344 1.82015625 0.01804687 2.7578125 0.02734375 C3.80582031 0.04474609 3.80582031 0.04474609 4.875 0.0625 C6 3.8125 6 3.8125 4.875 6.0625 C3.97565756 13.46280351 5.05761298 18.58957208 8.87890625 24.96875 C9.875 27.0625 9.875 27.0625 8.875 30.0625 C4.56972332 32.91354989 -0.15399959 32.69960607 -5.125 32.0625 C-10.11169007 29.56915497 -13.62175474 26.06899051 -16.125 21.0625 C-16.66860446 16.10767906 -16.68937074 12.19124148 -14.4375 7.6875 C-9.99007913 2.63907631 -6.73753791 -0.08637869 0 0 Z " fill="#EFC154" transform="translate(682.125,548.9375)"/>
<path d="M0 0 C1.11375 0.495 1.11375 0.495 2.25 1 C-0.65795724 5.56570009 -3.87189095 9.62124427 -7.4375 13.6875 C-12.08150909 19.03218164 -16.59403938 24.45085527 -21.0078125 29.98828125 C-22.75 32 -22.75 32 -24.75 33 C-26.76927511 32.39421747 -28.77253397 31.73080266 -30.75 31 C-29.62122638 21.24324412 -27.22551608 8.57928145 -20.125 1.375 C-14.11687805 -2.88845577 -6.75098962 -1.8002639 0 0 Z " fill="#E8476D" transform="translate(623.75,304)"/>
<path d="M0 0 C2.54106009 2.20961747 3.30621489 3.73988358 4 7 C4.99 6.34 5.98 5.68 7 5 C14.41612797 1.28532628 25.12549489 1.79438576 32.9375 4.1875 C37.50449725 6.02135218 41.78257111 8.47751889 46 11 C42.69597715 16.17151402 38.79628236 18.41613215 33 20 C24.24587034 21.1818075 17.27778803 20.09061447 10 15 C5.44528432 11.29767913 2.18553582 7.52812003 0 2 C0 1.34 0 0.68 0 0 Z " fill="#09D19C" transform="translate(713,572)"/>
<path d="M0 0 C5.91119529 3.55665195 11.07222605 8.79259224 13.32421875 15.3984375 C12.99421875 16.7184375 12.66421875 18.0384375 12.32421875 19.3984375 C11.33421875 16.4284375 10.34421875 13.4584375 9.32421875 10.3984375 C8.33421875 11.0584375 7.34421875 11.7184375 6.32421875 12.3984375 C-1.09190922 16.11311122 -11.80127614 15.60405174 -19.61328125 13.2109375 C-24.1802785 11.37708532 -28.45835236 8.92091861 -32.67578125 6.3984375 C-25.59264099 -4.68821681 -11.06504466 -5.02470627 0 0 Z " fill="#0AD29C" transform="translate(253.67578125,560.6015625)"/>
<path d="M0 0 C4.98669007 2.49334503 8.49675474 5.99350949 11 11 C11.54360446 15.95482094 11.56437074 19.87125852 9.3125 24.375 C6.53604336 27.52665348 3.77376371 30.11311814 0 32 C-1.54023996 32.06950541 -3.08334988 32.08452357 -4.625 32.0625 C-5.85089844 32.04896484 -5.85089844 32.04896484 -7.1015625 32.03515625 C-7.72804688 32.02355469 -8.35453125 32.01195312 -9 32 C-8.47731534 29.23723823 -7.89130413 26.6739124 -7 24 C-6.21987483 17.10146454 -6.58358047 12.31333956 -10.90625 6.75390625 C-12 5 -12 5 -12 1 C-8.28795513 -0.85602244 -4.0512695 -0.44875601 0 0 Z " fill="#EEC154" transform="translate(326,566)"/>
<path d="M0 0 C1 3 1 3 0.0859375 4.859375 C-0.45160156 5.91898438 -0.45160156 5.91898438 -1 7 C-1.98488693 14.37519981 -0.82618793 19.7300789 3 26 C3.67691736 27.32815854 4.34632061 28.66025171 5 30 C0.7405332 32.83964453 -2.99975838 32.63185581 -8 32 C-12.98669007 29.50665497 -16.49675474 26.00649051 -19 21 C-19.54360446 16.04517906 -19.56437074 12.12874148 -17.3125 7.625 C-11.64206485 1.18828984 -8.23419386 -0.13280958 0 0 Z " fill="#EEC154" transform="translate(662,552)"/>
<path d="M0 0 C4.98669007 2.49334503 8.49675474 5.99350949 11 11 C11.54360446 15.95482094 11.56437074 19.87125852 9.3125 24.375 C6.53604336 27.52665348 3.77376371 30.11311814 0 32 C-2.3329866 32.04022391 -4.66706666 32.04320247 -7 32 C-6.84273438 31.28457031 -6.68546875 30.56914063 -6.5234375 29.83203125 C-5.34735452 23.46889572 -4.73659617 17.30464361 -8.25 11.625 C-9.13800741 10.39545128 -10.05351282 9.18511993 -11 8 C-11.763125 7.01 -12.52625 6.02 -13.3125 5 C-13.869375 4.34 -14.42625 3.68 -15 3 C-10.37313769 -0.70148984 -5.66929436 -0.81899919 0 0 Z " fill="#EEC154" transform="translate(378,552)"/>
<path d="M0 0 C-0.23783203 0.82757812 -0.23783203 0.82757812 -0.48046875 1.671875 C-2.29002207 9.7808508 -1.11147277 15.93340618 3 23 C3 23.66 3 24.32 3 25 C4.32 25.66 5.64 26.32 7 27 C7 27.99 7 28.98 7 30 C2.43068834 32.63209197 -1.84311828 32.66092946 -7 32 C-11.98669007 29.50665497 -15.49675474 26.00649051 -18 21 C-18.54360446 16.04517906 -18.56437074 12.12874148 -16.3125 7.625 C-11.0773877 1.68244009 -7.84637154 -0.14530318 0 0 Z " fill="#EEC154" transform="translate(609,566)"/>
<path d="M0 0 C0 4.95 0 9.9 0 15 C-1.98 15.0928125 -1.98 15.0928125 -4 15.1875 C-7.76379939 15.55980782 -9.66329381 16.30068148 -12.5625 18.6875 C-16.64566277 21.53660343 -20.4904326 21.21041809 -25.25 20.6875 C-25.94810791 20.62328857 -26.64621582 20.55907715 -27.36547852 20.49291992 C-29.390625 20.19921875 -29.390625 20.19921875 -33 19 C-35.22558594 15.92504883 -35.22558594 15.92504883 -37 13 C-36.14768799 12.67725098 -35.29537598 12.35450195 -34.41723633 12.02197266 C-31.2395249 10.81840228 -28.06197109 9.61441759 -24.88452148 8.41015625 C-23.51218813 7.89013456 -22.1397931 7.3702756 -20.76733398 6.85058594 C-18.78873516 6.10134503 -16.81036265 5.3515092 -14.83203125 4.6015625 C-13.64327393 4.15119629 -12.4545166 3.70083008 -11.22973633 3.23681641 C-9.22708148 2.46990663 -7.23456385 1.67516202 -5.26049805 0.83740234 C-3 0 -3 0 0 0 Z " fill="#F0C053" transform="translate(301,548)"/>
<path d="M0 0 C5.60795104 0.22889596 8.34479785 1.6158498 12.51953125 5.33203125 C16.17097285 9.44592455 16.43409959 13.19581856 16.31640625 18.53125 C15.6851283 23.45677674 12.96946378 26.14594857 9.375 29.3125 C6.0526175 31.6731402 4.39831373 32.11997591 0.375 32.0625 C-0.85089844 32.04896484 -0.85089844 32.04896484 -2.1015625 32.03515625 C-2.72804688 32.02355469 -3.35453125 32.01195312 -4 32 C-3.6390625 31.11699219 -3.278125 30.23398437 -2.90625 29.32421875 C1.03054866 19.14322 1.91084482 10.7485021 0 0 Z " fill="#ECBF53" transform="translate(272,573)"/>
<path d="M0 0 C-0.52256299 3.23989052 -1.41330793 6.13021545 -2.5625 9.1875 C-5.12692574 16.71815509 -4.14568251 24.26664307 -3 32 C-8.60795104 31.77110404 -11.34479785 30.3841502 -15.51953125 26.66796875 C-19.17097285 22.55407545 -19.43409959 18.80418144 -19.31640625 13.46875 C-18.6851283 8.54322326 -15.96946378 5.85405143 -12.375 2.6875 C-7.99817258 -0.42235106 -5.28571974 -0.08525354 0 0 Z " fill="#EEC053" transform="translate(711,545)"/>
<path d="M0 0 C2.97 0.99 5.94 1.98 9 3 C9.89631523 15.77249197 4.95449028 27.53374285 0.4375 39.25 C0.04957275 40.26271973 -0.33835449 41.27543945 -0.73803711 42.31884766 C-1.30276733 43.74656494 -1.30276733 43.74656494 -1.87890625 45.203125 C-2.38272827 46.48171387 -2.38272827 46.48171387 -2.89672852 47.78613281 C-4.00635446 50.01275111 -5.14213205 51.36934854 -7 53 C-5.60073684 42.61252881 -3.87242802 32.31083699 -2 22 C-3.65 21.67 -5.3 21.34 -7 21 C-6.66226563 20.07058594 -6.32453125 19.14117187 -5.9765625 18.18359375 C-5.53054688 16.94738281 -5.08453125 15.71117187 -4.625 14.4375 C-4.18414063 13.21933594 -3.74328125 12.00117188 -3.2890625 10.74609375 C-2.0627446 7.18233961 -1.00018873 3.63152637 0 0 Z " fill="#11CE97" transform="translate(872,358)"/>
<path d="M0 0 C9.36801043 12.17841356 14.66942991 33.72708053 14 49 C10.96897016 44.45345524 9.0418459 39.4418822 6.875 34.4375 C6.40707031 33.37080078 5.93914062 32.30410156 5.45703125 31.20507812 C5.01488281 30.18736328 4.57273438 29.16964844 4.1171875 28.12109375 C3.71097168 27.1870874 3.30475586 26.25308105 2.88623047 25.29077148 C2 23 2 23 2 21 C-0.31 21.66 -2.62 22.32 -5 23 C-5.10957031 22.16597656 -5.21914062 21.33195312 -5.33203125 20.47265625 C-6.29304192 13.65182443 -7.59313728 7.4547682 -10 1 C-3.375 -1.125 -3.375 -1.125 0 0 Z " fill="#0BCE99" transform="translate(201,334)"/>
<path d="M0 0 C1.87109375 1.66796875 1.87109375 1.66796875 3 3 C-1.11246075 7.01215683 -3.81879645 8.28559718 -9.66186523 8.30273438 C-11.63340339 8.25140832 -13.60393812 8.16525299 -15.57421875 8.078125 C-18.82135283 7.83280962 -18.82135283 7.83280962 -21.1328125 8.6171875 C-23.96689257 9.19823321 -25.63696964 8.13331187 -28.1875 6.875 C-29.06792969 6.45992187 -29.94835937 6.04484375 -30.85546875 5.6171875 C-33 4 -33 4 -33.80078125 1.3203125 C-33.86652344 0.55460938 -33.93226563 -0.21109375 -34 -1 C-23.09492602 -7.9671306 -11.11041864 -5.67510592 0 0 Z " fill="#09D39D" transform="translate(721,532)"/>
<path d="M0 0 C4.68721819 -0.37497746 8.04875802 -0.48459497 12.3125 1.6875 C15.95431017 4.82115061 19.69206795 8.19327512 20.23828125 13.171875 C20.40659218 19.01846537 20.02425335 22.43192863 16 27 C13.28664979 29.44863311 11.46956331 30.8434789 8 32 C8.33 31.071875 8.66 30.14375 9 29.1875 C10.56831139 23.53242098 11.35408885 17.25652774 9.0546875 11.7265625 C7.81563212 9.6926414 6.49420126 7.85361724 5 6 C4.52304687 5.39800781 4.04609375 4.79601562 3.5546875 4.17578125 C2.39913272 2.75940125 1.20372033 1.37568038 0 0 Z " fill="#E9BD53" transform="translate(332,562)"/>
<path d="M0 0 C4.68721819 -0.37497746 8.04875802 -0.48459497 12.3125 1.6875 C15.95431017 4.82115061 19.69206795 8.19327512 20.23828125 13.171875 C20.40659218 19.01846537 20.02425335 22.43192863 16 27 C13.28664979 29.44863311 11.46956331 30.8434789 8 32 C8.33 31.071875 8.66 30.14375 9 29.1875 C10.56831139 23.53242098 11.35408885 17.25652774 9.0546875 11.7265625 C7.81563212 9.6926414 6.49420126 7.85361724 5 6 C4.52304687 5.39800781 4.04609375 4.79601562 3.5546875 4.17578125 C2.39913272 2.75940125 1.20372033 1.37568038 0 0 Z " fill="#E9BD53" transform="translate(347,558)"/>
<path d="M0 0 C0.33 0.66 0.66 1.32 1 2 C0.69835937 2.59296875 0.39671875 3.1859375 0.0859375 3.796875 C-2.19972998 8.43398456 -1.80070061 14.37952527 -0.3125 19.25 C1.97627883 24.13272818 5.33179922 28.0872525 9 32 C4.31278181 32.37497746 0.95124198 32.48459497 -3.3125 30.3125 C-6.95431017 27.17884939 -10.69206795 23.80672488 -11.23828125 18.828125 C-11.40659218 12.98153463 -11.02425335 9.56807137 -7 5 C-4.72772946 2.99823785 -2.70333897 1.35166948 0 0 Z " fill="#EABD52" transform="translate(624,560)"/>
<path d="M0 0 C0.33 0.66 0.66 1.32 1 2 C0.69835937 2.59296875 0.39671875 3.1859375 0.0859375 3.796875 C-2.19972998 8.43398456 -1.80070061 14.37952527 -0.3125 19.25 C1.97627883 24.13272818 5.33179922 28.0872525 9 32 C4.31278181 32.37497746 0.95124198 32.48459497 -3.3125 30.3125 C-6.95431017 27.17884939 -10.69206795 23.80672488 -11.23828125 18.828125 C-11.40659218 12.98153463 -11.02425335 9.56807137 -7 5 C-4.72772946 2.99823785 -2.70333897 1.35166948 0 0 Z " fill="#EABD52" transform="translate(639,556)"/>
<path d="M0 0 C0.66386719 0.20496094 1.32773437 0.40992188 2.01171875 0.62109375 C2.89472656 0.89050781 3.77773438 1.15992188 4.6875 1.4375 C5.55761719 1.70433594 6.42773438 1.97117187 7.32421875 2.24609375 C9.8504022 2.95785055 12.4264286 3.48528572 15 4 C15 14.23 15 24.46 15 35 C14.34 35 13.68 35 13 35 C13 33.68 13 32.36 13 31 C12.34 31 11.68 31 11 31 C11 28.69 11 26.38 11 24 C10.34 24 9.68 24 9 24 C9 22.35 9 20.7 9 19 C8.34 19 7.68 19 7 19 C5.57741188 15.17679443 4.75957724 12.08718695 5 8 C4.01 8 3.02 8 2 8 C2 6.02 2 4.04 2 2 C1.34 2 0.68 2 0 2 C0 1.34 0 0.68 0 0 Z " fill="#13D39A" transform="translate(724,594)"/>
<path d="M0 0 C2.79805863 1.04303644 4.58211779 2.20064579 7 4 C6 7 6 7 4.2421875 8.1640625 C0.21552053 9.66529374 -3.7742841 9.55320886 -8 9 C-11.85544798 7.00342873 -13.59805092 5.60292362 -16 2 C-11.12330668 -1.25112888 -5.70209171 -0.58869134 0 0 Z " fill="#09CF99" transform="translate(685,572)"/>
<path d="M0 0 C3.85544798 1.99657127 5.59805092 3.39707638 8 7 C3.00504876 9.99220229 -2.35672903 9.50767366 -8 9 C-10.61306191 8.24530933 -12.59779319 7.31029462 -15 6 C-14.75 4.125 -14.75 4.125 -14 2 C-9.62347565 -0.7868451 -5.01652161 -0.65673706 0 0 Z " fill="#08CE99" transform="translate(303,569)"/>
<path d="M0 0 C3.85544798 1.99657127 5.59805092 3.39707638 8 7 C2.63379728 10.31874882 -3.94698555 9.85756993 -10 9 C-12.69131338 7.21616223 -13.43092177 5.89675981 -15 3 C-10.38141351 -0.69486919 -5.66147235 -0.83336873 0 0 Z " fill="#09CB97" transform="translate(378,552)"/>
<path d="M0 0 C2.78517104 1.0096245 3.86138979 1.86138979 6 4 C6 4.99 6 5.98 6 7 C1.43738996 9.62823159 -2.84981326 9.6742358 -8 9 C-11.85544798 7.00342873 -13.59805092 5.60292362 -16 2 C-11.12182972 -1.25211352 -5.70283389 -0.58006766 0 0 Z " fill="#08CC98" transform="translate(610,589)"/>
<path d="M0 0 C1.98 0.66 3.96 1.32 6 2 C6.19946435 8.28312702 5.84752843 13.95844718 4 20 C3 21 3 21 -0.5625 21.0625 C-1.696875 21.041875 -2.83125 21.02125 -4 21 C-3.39700836 13.76410027 -1.8849413 7.00629124 0 0 Z " fill="#E0486C" transform="translate(875,359)"/>
<path d="M0 0 C3.1025281 4.45585638 7.09583563 10.64575291 6.9375 16.1875 C5.58463168 18.80304541 3.68511432 19.02476648 1 20 C-5.51936219 6.3667426 -5.51936219 6.3667426 -7 0 C-3.98968256 -0.93423645 -3.13349732 -1.04449911 0 0 Z " fill="#E3486C" transform="translate(201,334)"/>
<path d="M0 0 C3.29905386 1.34655259 4.49878704 2.16464507 6.3125 5.1875 C6.539375 5.785625 6.76625 6.38375 7 7 C2.74748617 9.83500922 -1.00657594 9.64456329 -6 9 C-9.85544798 7.00342873 -11.59805092 5.60292362 -14 2 C-9.5382539 -0.9744974 -5.23245124 -0.49796388 0 0 Z " fill="#07CC98" transform="translate(660,575)"/>
<path d="M0 0 C3.85544798 1.99657127 5.59805092 3.39707638 8 7 C3.23106313 9.78747718 -1.61902962 9.79976905 -7 9 C-9.5780485 7.59066682 -10.97560228 6.18853807 -13 4 C-12.67 3.01 -12.34 2.02 -12 1 C-8.29240268 -0.85379866 -4.04626515 -0.45923868 0 0 Z " fill="#07CC98" transform="translate(326,566)"/>
<path d="M0 0 C2.96930778 2.40219674 5.55655533 5.06662607 8 8 C8 8.33 8 8.66 8 9 C3.19563218 9.38434943 -0.09024857 9.47968712 -4.4375 7.1875 C-7 5 -7 5 -9 2 C-5.37337007 -0.41775329 -4.27415095 -0.80644357 0 0 Z " fill="#07C794" transform="translate(625,583)"/>
<path d="M0 0 C2.96930778 2.40219674 5.55655533 5.06662607 8 8 C8 8.33 8 8.66 8 9 C3.19563218 9.38434943 -0.09024857 9.47968712 -4.4375 7.1875 C-7 5 -7 5 -9 2 C-5.37337007 -0.41775329 -4.27415095 -0.80644357 0 0 Z " fill="#07C794" transform="translate(640,579)"/>
<path d="M0 0 C0.99 0.33 1.98 0.66 3 1 C2.87882813 1.71542969 2.75765625 2.43085938 2.6328125 3.16796875 C1.35453476 10.76880484 0.1553575 18.37955694 -1 26 C-1.33 24.68 -1.66 23.36 -2 22 C-3.65 21.67 -5.3 21.34 -7 21 C-6.66226563 20.07058594 -6.32453125 19.14117187 -5.9765625 18.18359375 C-5.53054688 16.94738281 -5.08453125 15.71117187 -4.625 14.4375 C-4.18414063 13.21933594 -3.74328125 12.00117188 -3.2890625 10.74609375 C-2.0627446 7.18233961 -1.00018873 3.63152637 0 0 Z " fill="#1AC594" transform="translate(872,358)"/>
<path d="M0 0 C4.80436782 -0.38434943 8.09024857 -0.47968712 12.4375 1.8125 C15 4 15 4 17 7 C13.84760816 8.86808405 11.65356078 9.42951087 8 9 C5.76171875 7.28515625 5.76171875 7.28515625 3.6875 5.0625 C2.64142578 3.96615234 2.64142578 3.96615234 1.57421875 2.84765625 C0 1 0 1 0 0 Z " fill="#06C795" transform="translate(332,562)"/>
<path d="M0 0 C4.80436782 -0.38434943 8.09024857 -0.47968712 12.4375 1.8125 C15 4 15 4 17 7 C13.84760816 8.86808405 11.65356078 9.42951087 8 9 C5.76171875 7.28515625 5.76171875 7.28515625 3.6875 5.0625 C2.64142578 3.96615234 2.64142578 3.96615234 1.57421875 2.84765625 C0 1 0 1 0 0 Z " fill="#06C795" transform="translate(347,558)"/>
<path d="M0 0 C1.88208008 0.26586914 1.88208008 0.26586914 4 1 C5.08081055 2.64233398 5.08081055 2.64233398 5.88671875 4.74609375 C6.18513672 5.50083984 6.48355469 6.25558594 6.79101562 7.03320312 C7.08685547 7.82662109 7.38269531 8.62003906 7.6875 9.4375 C8.29543263 10.99875255 8.90349934 12.5599529 9.51171875 14.12109375 C9.90556763 15.16414673 9.90556763 15.16414673 10.30737305 16.22827148 C10.99390256 18.06351894 10.99390256 18.06351894 12 20 C9.69 20.66 7.38 21.32 5 22 C4.89042969 21.16597656 4.78085938 20.33195312 4.66796875 19.47265625 C3.70695808 12.65182443 2.40686272 6.4547682 0 0 Z " fill="#15C293" transform="translate(191,335)"/>
<path d="M0 0 C2 5.625 2 5.625 2 9 C-4.14689273 8.63118644 -6.69027374 7.09949571 -11 3 C-8.21756596 -1.17365106 -4.53441502 -0.22300402 0 0 Z " fill="#08C996" transform="translate(706,568)"/>
<path d="M0 0 C6.14689273 0.36881356 8.69027374 1.90050429 13 6 C12.67 6.66 12.34 7.32 12 8 C8.52674819 9.1577506 5.63932552 9.06866652 2 9 C1.34 6.03 0.68 3.06 0 0 Z " fill="#06CC98" transform="translate(272,573)"/>
<path d="M0 0 C-4.49305424 4.49305424 -11.19610684 4.14349187 -17.1875 4.1875 C-21.27385656 4.16497323 -25.01885257 3.9371816 -29 3 C-28.67 2.34 -28.34 1.68 -28 1 C-18.82900083 -0.42331759 -9.25429026 -0.12657844 0 0 Z " fill="#1ACB92" transform="translate(846,425)"/>
<path d="M0 0 C0 4.25410391 -1.87484566 5.84210299 -4.65234375 8.921875 C-8.82334933 12.61401305 -13.77746238 15.10593856 -19 17 C-19.66 16.67 -20.32 16.34 -21 16 C-18.62745295 14.08022911 -16.25208787 12.16413443 -13.875 10.25 C-13.20984375 9.71117187 -12.5446875 9.17234375 -11.859375 8.6171875 C-8.01996102 5.53059979 -4.1464058 2.66093332 0 0 Z " fill="#12CB94" transform="translate(206,406)"/>
<path d="M0 0 C6.50547445 5.09124088 6.50547445 5.09124088 8 9 C8.1953125 11.359375 8.1953125 11.359375 8.125 13.75 C8.10695313 14.54921875 8.08890625 15.3484375 8.0703125 16.171875 C8.03550781 17.07679688 8.03550781 17.07679688 8 18 C5.39667844 14.83936913 3.85961424 11.6568348 2.3125 7.875 C1.87550781 6.82054687 1.43851563 5.76609375 0.98828125 4.6796875 C0 2 0 2 0 0 Z " fill="#D64869" transform="translate(839,461)"/>
<path d="M0 0 C6.50547445 5.09124088 6.50547445 5.09124088 8 9 C8.1953125 11.359375 8.1953125 11.359375 8.125 13.75 C8.10695312 14.54921875 8.08890625 15.3484375 8.0703125 16.171875 C8.03550781 17.07679688 8.03550781 17.07679688 8 18 C5.39667844 14.83936913 3.85961424 11.6568348 2.3125 7.875 C1.87550781 6.82054687 1.43851563 5.76609375 0.98828125 4.6796875 C0 2 0 2 0 0 Z " fill="#D64869" transform="translate(207,461)"/>
<path d="M0 0 C-5.445 3.96 -5.445 3.96 -11 8 C-11.33 6.68 -11.66 5.36 -12 4 C-8.71298741 1.21868166 -4.24676932 -2.12338466 0 0 Z " fill="#13C791" transform="translate(697,495)"/>
<path d="M0 0 C3.3 0 6.6 0 10 0 C8.68 0.33 7.36 0.66 6 1 C6 1.66 6 2.32 6 3 C5.34 3 4.68 3 4 3 C4 3.66 4 4.32 4 5 C3.01 5 2.02 5 1 5 C0.67 3.35 0.34 1.7 0 0 Z " fill="#D45572" transform="translate(680,447)"/>
<path d="M0 0 C0.33 1.32 0.66 2.64 1 4 C-3.455 5.485 -3.455 5.485 -8 7 C-5.42215154 4.35247996 -3.08351902 2.05567935 0 0 Z " fill="#19CE95" transform="translate(300,534)"/>
<path d="M0 0 C0.99 0 1.98 0 3 0 C2.34 1.65 1.68 3.3 1 5 C-0.65 5 -2.3 5 -4 5 C-3.34 4.67 -2.68 4.34 -2 4 C-2 3.34 -2 2.68 -2 2 C-1.34 2 -0.68 2 0 2 C0 1.34 0 0.68 0 0 Z " fill="#47D18B" transform="translate(672,694)"/>
<path d="M0 0 C1.65 0 3.3 0 5 0 C4.01 0.495 4.01 0.495 3 1 C3 1.66 3 2.32 3 3 C2.34 3 1.68 3 1 3 C1 3.66 1 4.32 1 5 C0.01 5 -0.98 5 -2 5 C-2 4.34 -2 3.68 -2 3 C-1.34 3 -0.68 3 0 3 C0 2.01 0 1.02 0 0 Z " fill="#97CC73" transform="translate(692,678)"/>
</svg>
